<svg width="157" height="29" viewBox="0 0 157 29" fill="none" xmlns="http://www.w3.org/2000/svg">
<g clip-path="url(#clip0_3720_13739)">
<path d="M29.8478 7.5924C29.8478 9.23992 28.5195 10.5755 26.881 10.5755C25.2424 10.5755 23.9141 9.23992 23.9141 7.5924C23.9141 5.94492 25.2424 4.60938 26.881 4.60938C28.5195 4.60938 29.8478 5.94492 29.8478 7.5924Z" fill="#A4ABBD"/>
<path d="M29.8478 7.5924C29.8478 9.23992 28.5195 10.5755 26.881 10.5755C25.2424 10.5755 23.9141 9.23992 23.9141 7.5924C23.9141 5.94492 25.2424 4.60938 26.881 4.60938C28.5195 4.60938 29.8478 5.94492 29.8478 7.5924Z" fill="white"/>
<path fill-rule="evenodd" clip-rule="evenodd" d="M37.8517 0C36.8237 5.87586 32.5853 16.2299 27.6917 20.5209C22.3994 25.1616 17.3596 25.6858 11.4508 25.1616C16.8383 24.8121 19.7926 23.2395 20.0492 19.6168C20.4646 13.7528 16.9023 9.03988 13.6656 5.87586C14.2731 6.26608 14.9185 6.71679 15.5984 7.19155C18.5412 9.24655 22.1293 11.7521 26.0733 11.7521C32.3671 11.7521 36.6499 2.79573 37.8517 0ZM0 23.323C3.23679 24.9502 9.89018 27.6971 16.6335 27.2102C23.609 26.7066 27.9615 23.7636 31.6487 19.1646C27.9615 26.2099 22.4778 28.295 18.0721 28.6566C12.4077 29.1215 5.7543 27.2102 0 23.323Z" fill="#A4ABBD"/>
<path fill-rule="evenodd" clip-rule="evenodd" d="M37.8517 0C36.8237 5.87586 32.5853 16.2299 27.6917 20.5209C22.3994 25.1616 17.3596 25.6858 11.4508 25.1616C16.8383 24.8121 19.7926 23.2395 20.0492 19.6168C20.4646 13.7528 16.9023 9.03988 13.6656 5.87586C14.2731 6.26608 14.9185 6.71679 15.5984 7.19155C18.5412 9.24655 22.1293 11.7521 26.0733 11.7521C32.3671 11.7521 36.6499 2.79573 37.8517 0ZM0 23.323C3.23679 24.9502 9.89018 27.6971 16.6335 27.2102C23.609 26.7066 27.9615 23.7636 31.6487 19.1646C27.9615 26.2099 22.4778 28.295 18.0721 28.6566C12.4077 29.1215 5.7543 27.2102 0 23.323Z" fill="white"/>
<path d="M56.7148 13.895C55.8305 13.895 55.0749 13.7057 54.4478 13.3271C53.8288 12.9404 53.3586 12.4007 53.037 11.7079C52.7154 11.0151 52.5547 10.2016 52.5547 9.26712C52.5547 8.36489 52.7436 7.56739 53.1214 6.87462C53.4993 6.18181 54.0177 5.64611 54.6769 5.2675C55.3361 4.88083 56.0757 4.6875 56.8957 4.6875C57.5146 4.6875 58.2583 4.78417 59.1265 4.9775L59.5244 5.05L59.4038 7.225H58.5959L58.2944 5.69042C58.1819 5.59375 57.9849 5.51319 57.7036 5.44875C57.4302 5.37625 57.0926 5.34 56.6907 5.34C56.1762 5.34 55.718 5.48903 55.316 5.78708C54.9141 6.07708 54.5966 6.50806 54.3635 7.08C54.1384 7.65194 54.0258 8.33667 54.0258 9.13417C54.0258 9.89139 54.1263 10.5801 54.3272 11.2004C54.5283 11.8207 54.8337 12.3161 55.2437 12.6867C55.6536 13.0492 56.1601 13.2304 56.763 13.2304C57.1891 13.2304 57.5146 13.1942 57.7398 13.1217C57.9729 13.0492 58.1698 12.9444 58.3306 12.8075L58.8371 11.6233L59.5967 11.72L59.3073 13.4358C59.1385 13.4439 58.8893 13.5003 58.5597 13.605C58.2703 13.6936 57.989 13.7621 57.7157 13.8104C57.4504 13.8668 57.1167 13.895 56.7148 13.895Z" fill="white"/>
<path d="M61.0625 11.9489C61.0625 11.1917 61.4403 10.6358 62.196 10.2814C62.9516 9.91887 63.9083 9.72561 65.0658 9.70144V9.3631C65.0658 8.98449 65.0254 8.68637 64.9453 8.46887C64.8652 8.25137 64.7241 8.09432 64.5235 7.99766C64.3306 7.89293 64.0529 7.84054 63.6912 7.84054C63.2812 7.84054 62.9115 7.90099 62.5819 8.02182C62.2603 8.1346 61.9387 8.27554 61.6172 8.44471L61.3157 7.81644C61.4202 7.72783 61.6131 7.61099 61.8945 7.46599C62.1759 7.32099 62.5014 7.1921 62.8713 7.07932C63.241 6.96655 63.6108 6.91016 63.9806 6.91016C64.5511 6.91016 65.0017 6.99071 65.3311 7.15182C65.6689 7.30488 65.9099 7.5546 66.0548 7.90099C66.1996 8.24738 66.2714 8.71054 66.2714 9.29054V13.1693H66.9829V13.701C66.8226 13.7413 66.6175 13.7815 66.3682 13.8218C66.1272 13.8621 65.9138 13.8822 65.7292 13.8822C65.5042 13.8822 65.351 13.846 65.2709 13.7735C65.1908 13.709 65.1504 13.56 65.1504 13.3264V12.9277C64.9094 13.1693 64.612 13.3908 64.2582 13.5922C63.9123 13.7936 63.5184 13.8943 63.0763 13.8943C62.4975 13.8943 62.0151 13.7292 61.6292 13.3989C61.2514 13.0605 61.0625 12.5772 61.0625 11.9489ZM63.5947 13.0727C63.8037 13.0727 64.0449 13.0082 64.3184 12.8793C64.5915 12.7504 64.8408 12.5974 65.0658 12.4202V10.3418C64.1896 10.3418 63.5264 10.4788 63.0763 10.7527C62.6341 11.0185 62.4131 11.3689 62.4131 11.8039C62.4131 12.2389 62.5175 12.5611 62.7265 12.7705C62.9436 12.9719 63.233 13.0727 63.5947 13.0727Z" fill="white"/>
<path d="M69.0319 7.98594L68.1641 7.76837V7.11594L69.8882 6.89844H69.9241L70.1773 7.11594V7.62344L70.1658 7.91344C70.4548 7.65566 70.8368 7.42198 71.3111 7.21254C71.7855 7.0031 72.2392 6.89844 72.6738 6.89844C73.1802 6.89844 73.5699 6.9951 73.8429 7.18844C74.1243 7.38177 74.3217 7.67983 74.4339 8.0826C74.5467 8.47733 74.6031 9.01299 74.6031 9.68966V13.073L75.4472 13.1575V13.7617H72.5892V13.1697L73.3366 13.073V9.67754C73.3366 9.20226 73.3045 8.83177 73.2404 8.56594C73.1763 8.29205 73.0552 8.09066 72.8783 7.96177C72.702 7.82483 72.4444 7.75632 72.1066 7.75632C71.8175 7.75632 71.5079 7.82882 71.1785 7.97382C70.849 8.11882 70.5555 8.28799 70.2978 8.48132V13.0609L71.1182 13.1697V13.7617H68.2724V13.1697L69.0319 13.0609V7.98594Z" fill="white"/>
<path d="M76.7969 11.9489C76.7969 11.1917 77.1744 10.6358 77.9301 10.2814C78.6858 9.91887 79.6427 9.72561 80.8003 9.70144V9.3631C80.8003 8.98449 80.7599 8.68637 80.6798 8.46887C80.599 8.25137 80.4586 8.09432 80.2574 7.99766C80.0645 7.89293 79.7869 7.84054 79.4254 7.84054C79.0152 7.84054 78.646 7.90099 78.3159 8.02182C77.9948 8.1346 77.6731 8.27554 77.3513 8.44471L77.05 7.81644C77.1545 7.72783 77.3475 7.61099 77.6288 7.46599C77.9102 7.32099 78.2358 7.1921 78.6056 7.07932C78.9755 6.96655 79.3453 6.91016 79.7151 6.91016C80.2856 6.91016 80.7355 6.99071 81.0656 7.15182C81.4028 7.30488 81.6444 7.5546 81.7886 7.90099C81.9335 8.24738 82.0059 8.71054 82.0059 9.29054V13.1693H82.7174V13.701C82.5565 13.7413 82.3514 13.7815 82.1027 13.8218C81.8611 13.8621 81.6483 13.8822 81.4637 13.8822C81.238 13.8822 81.0855 13.846 81.0054 13.7735C80.9246 13.709 80.8842 13.56 80.8842 13.3264V12.9277C80.6432 13.1693 80.3458 13.3908 79.992 13.5922C79.6466 13.7936 79.2524 13.8943 78.8108 13.8943C78.232 13.8943 77.7493 13.7292 77.3635 13.3989C76.986 13.0605 76.7969 12.5772 76.7969 11.9489ZM79.3293 13.0727C79.5382 13.0727 79.7792 13.0082 80.0523 12.8793C80.326 12.7504 80.5753 12.5974 80.8003 12.4202V10.3418C79.9241 10.3418 79.2607 10.4788 78.8108 10.7527C78.3685 11.0185 78.1474 11.3689 78.1474 11.8039C78.1474 12.2389 78.2518 12.5611 78.4608 12.7705C78.6781 12.9719 78.9671 13.0727 79.3293 13.0727Z" fill="white"/>
<path d="M86.6407 13.8964C86.1581 13.8964 85.7158 13.7755 85.314 13.5339C84.9121 13.2922 84.5903 12.9216 84.3493 12.4222C84.116 11.9227 84 11.3065 84 10.5734C84 9.88868 84.1404 9.26441 84.4218 8.70052C84.7031 8.13663 85.105 7.69358 85.6274 7.37135C86.1581 7.04108 86.7811 6.87597 87.4964 6.87597C87.9066 6.87597 88.2803 6.92024 88.6181 7.00885V4.74927L87.3881 4.60427V4.08469L89.5584 3.86719H89.5949L89.8602 4.06052V13.1472H90.5595V13.703C90.3019 13.7594 90.0769 13.8037 89.884 13.8359C89.6994 13.8681 89.5026 13.8842 89.293 13.8842C89.0841 13.8842 88.9354 13.848 88.8469 13.7755C88.7585 13.703 88.7142 13.55 88.7142 13.3164V12.9297C88.4893 13.2036 88.1918 13.4331 87.822 13.6184C87.4605 13.8037 87.0663 13.8964 86.6407 13.8964ZM87.1227 13.0385C87.4362 13.0385 87.7297 12.97 88.0028 12.833C88.2765 12.688 88.4816 12.5229 88.6181 12.3376V7.91514C88.554 7.81847 88.4008 7.73385 88.1598 7.66135C87.9265 7.5808 87.6778 7.54052 87.4124 7.54052C86.7849 7.54052 86.2824 7.78219 85.9049 8.26552C85.5351 8.7408 85.3505 9.47791 85.3505 10.4768C85.3505 11.3468 85.5152 11.9912 85.8447 12.4101C86.1741 12.829 86.6004 13.0385 87.1227 13.0385Z" fill="white"/>
<path d="M93.4276 5.84719C93.1705 5.84719 92.9776 5.77469 92.8488 5.62969C92.7199 5.48469 92.6558 5.29941 92.6558 5.07385C92.6558 4.81608 92.7321 4.6026 92.8847 4.43344C93.0456 4.26427 93.2628 4.17969 93.5359 4.17969C93.8096 4.17969 94.0102 4.25219 94.139 4.39719C94.2679 4.54219 94.3319 4.72747 94.3319 4.95302C94.3319 5.22691 94.2518 5.44441 94.0909 5.60552C93.9378 5.76663 93.7211 5.84719 93.4397 5.84719H93.4276ZM92.9456 7.98597L92.029 7.7684V7.12802L93.898 6.89847H93.9217L94.1993 7.11597V13.073L95.1639 13.1697V13.7617H91.9688V13.1697L92.9456 13.0609V7.98597Z" fill="white"/>
<path d="M96.5078 11.9489C96.5078 11.1917 96.8853 10.6358 97.641 10.2814C98.3967 9.91887 99.353 9.72561 100.511 9.70144V9.3631C100.511 8.98449 100.471 8.68637 100.39 8.46887C100.31 8.25137 100.169 8.09432 99.9683 7.99766C99.7754 7.89293 99.4979 7.84054 99.1364 7.84054C98.7262 7.84054 98.3563 7.90099 98.0269 8.02182C97.7051 8.1346 97.384 8.27554 97.0622 8.44471L96.761 7.81644C96.8655 7.72783 97.0584 7.61099 97.3398 7.46599C97.6212 7.32099 97.9468 7.1921 98.3166 7.07932C98.6858 6.96655 99.0556 6.91016 99.4254 6.91016C99.9965 6.91016 100.446 6.99071 100.776 7.15182C101.114 7.30488 101.355 7.5546 101.5 7.90099C101.644 8.24738 101.717 8.71054 101.717 9.29054V13.1693H102.428V13.701C102.267 13.7413 102.062 13.7815 101.813 13.8218C101.572 13.8621 101.359 13.8822 101.174 13.8822C100.949 13.8822 100.796 13.846 100.716 13.7735C100.636 13.709 100.595 13.56 100.595 13.3264V12.9277C100.354 13.1693 100.057 13.3908 99.703 13.5922C99.3575 13.7936 98.9633 13.8943 98.5211 13.8943C97.9423 13.8943 97.4603 13.7292 97.0744 13.3989C96.6963 13.0605 96.5078 12.5772 96.5078 11.9489ZM99.0396 13.0727C99.2485 13.0727 99.4902 13.0082 99.7632 12.8793C100.036 12.7504 100.286 12.5974 100.511 12.4202V10.3418C99.6344 10.3418 98.9716 10.4788 98.5211 10.7527C98.0794 11.0185 97.8583 11.3689 97.8583 11.8039C97.8583 12.2389 97.9628 12.5611 98.1717 12.7705C98.3884 12.9719 98.6781 13.0727 99.0396 13.0727Z" fill="white"/>
<path d="M104.469 7.98594L103.602 7.76837V7.11594L105.326 6.89844H105.362L105.615 7.11594V7.62344L105.603 7.91344C105.892 7.65566 106.274 7.42198 106.749 7.21254C107.223 7.0031 107.677 6.89844 108.111 6.89844C108.618 6.89844 109.007 6.9951 109.281 7.18844C109.562 7.38177 109.759 7.67983 109.872 8.0826C109.984 8.47733 110.041 9.01299 110.041 9.68966V13.073L110.885 13.1575V13.7617H108.027V13.1697L108.775 13.073V9.67754C108.775 9.20226 108.743 8.83177 108.678 8.56594C108.614 8.29205 108.493 8.09066 108.316 7.96177C108.14 7.82483 107.882 7.75632 107.545 7.75632C107.255 7.75632 106.945 7.82882 106.616 7.97382C106.287 8.11882 105.993 8.28799 105.736 8.48132V13.0609L106.556 13.1697V13.7617H103.71V13.1697L104.469 13.0609V7.98594Z" fill="white"/>
<path d="M119.598 13.895C118.713 13.895 117.958 13.7057 117.331 13.3271C116.712 12.9404 116.242 12.4007 115.92 11.7079C115.598 11.0151 115.438 10.2016 115.438 9.26712C115.438 8.36489 115.627 7.56739 116.005 6.87462C116.382 6.18181 116.901 5.64611 117.56 5.2675C118.219 4.88083 118.959 4.6875 119.779 4.6875C120.398 4.6875 121.141 4.78417 122.009 4.9775L122.407 5.05L122.287 7.225H121.479L121.177 5.69042C121.065 5.59375 120.868 5.51319 120.587 5.44875C120.313 5.37625 119.975 5.34 119.574 5.34C119.06 5.34 118.601 5.48903 118.199 5.78708C117.797 6.07708 117.48 6.50806 117.246 7.08C117.021 7.65194 116.909 8.33667 116.909 9.13417C116.909 9.89139 117.009 10.5801 117.21 11.2004C117.411 11.8207 117.717 12.3161 118.127 12.6867C118.537 13.0492 119.043 13.2304 119.646 13.2304C120.072 13.2304 120.398 13.1942 120.623 13.1217C120.856 13.0492 121.053 12.9444 121.214 12.8075L121.72 11.6233L122.48 11.72L122.191 13.4358C122.021 13.4439 121.772 13.5003 121.443 13.605C121.154 13.6936 120.872 13.7621 120.598 13.8104C120.333 13.8668 120 13.895 119.598 13.895Z" fill="white"/>
<path d="M126.905 13.8954C125.932 13.8954 125.188 13.5772 124.674 12.9408C124.167 12.3044 123.914 11.4546 123.914 10.3912C123.914 9.69038 124.047 9.0741 124.312 8.54244C124.577 8.01077 124.947 7.6 125.422 7.31C125.904 7.02 126.45 6.875 127.061 6.875C127.809 6.875 128.388 7.08444 128.797 7.50333C129.215 7.91417 129.437 8.50622 129.461 9.27955C129.461 9.77094 129.433 10.1456 129.376 10.4033H125.229C125.245 11.2008 125.429 11.8452 125.783 12.3366C126.137 12.8199 126.639 13.0616 127.291 13.0616C127.612 13.0616 127.946 13.0052 128.291 12.8924C128.645 12.7716 128.918 12.6307 129.111 12.4696L129.34 13.0012C129.107 13.2429 128.762 13.4523 128.303 13.6296C127.845 13.8068 127.379 13.8954 126.905 13.8954ZM128.135 9.76288C128.158 9.59372 128.171 9.42049 128.171 9.24327C128.162 8.71966 128.05 8.30882 127.833 8.01077C127.624 7.70472 127.291 7.55167 126.832 7.55167C126.366 7.55167 125.992 7.72083 125.711 8.05917C125.438 8.3975 125.281 8.96538 125.24 9.76288H128.135Z" fill="white"/>
<path d="M131.704 7.98594L130.836 7.76837V7.11594L132.56 6.89844H132.596L132.849 7.11594V7.62344L132.838 7.91344C133.127 7.65566 133.509 7.42198 133.983 7.21254C134.457 7.0031 134.911 6.89844 135.346 6.89844C135.852 6.89844 136.242 6.9951 136.515 7.18844C136.797 7.38177 136.994 7.67983 137.106 8.0826C137.219 8.47733 137.275 9.01299 137.275 9.68966V13.073L138.119 13.1575V13.7617H135.261V13.1697L136.008 13.073V9.67754C136.008 9.20226 135.976 8.83177 135.912 8.56594C135.848 8.29205 135.727 8.09066 135.551 7.96177C135.374 7.82483 135.116 7.75632 134.778 7.75632C134.489 7.75632 134.18 7.82882 133.85 7.97382C133.521 8.11882 133.227 8.28799 132.97 8.48132V13.0609L133.79 13.1697V13.7617H130.944V13.1697L131.704 13.0609V7.98594Z" fill="white"/>
<path d="M141.535 13.8835C141.077 13.8835 140.735 13.7787 140.51 13.5693C140.285 13.3598 140.173 13.0014 140.173 12.4939V7.85391H139.305V7.31019C139.344 7.30213 139.457 7.27391 139.642 7.22557C139.827 7.17724 139.951 7.1329 140.016 7.09262C140.144 7.02012 140.245 6.87519 140.317 6.65769C140.381 6.50463 140.458 6.25891 140.546 5.92057C140.635 5.58224 140.687 5.38085 140.703 5.31641H141.415L141.438 7.05641H143.452V7.85391H141.438V11.5635C141.438 12.0226 141.451 12.3449 141.475 12.5302C141.507 12.7155 141.567 12.8362 141.656 12.8926C141.752 12.949 141.913 12.9772 142.138 12.9772C142.355 12.9772 142.592 12.949 142.85 12.8926C143.115 12.8362 143.32 12.7759 143.464 12.7114L143.645 13.2551C143.452 13.4001 143.139 13.5411 142.705 13.6781C142.279 13.815 141.889 13.8835 141.535 13.8835Z" fill="white"/>
<path d="M144.891 13.1704L145.795 13.0979V7.98667L144.927 7.7691V7.11667L146.591 6.89917H146.615L146.88 7.11667V7.33417L146.844 8.2766H146.88C146.961 8.13966 147.106 7.9625 147.315 7.745C147.524 7.5275 147.793 7.33011 148.122 7.15288C148.452 6.96761 148.809 6.875 149.195 6.875C149.356 6.875 149.489 6.89511 149.593 6.93538V8.28872C149.538 8.24844 149.445 8.21216 149.316 8.17994C149.195 8.13972 149.059 8.11955 148.906 8.11955C148.239 8.11955 147.62 8.325 147.049 8.73583V13.0858L148.581 13.1824V13.7624H144.891V13.1704Z" fill="white"/>
<path d="M153.834 13.8954C152.861 13.8954 152.118 13.5772 151.603 12.9408C151.097 12.3044 150.844 11.4546 150.844 10.3912C150.844 9.69038 150.976 9.0741 151.242 8.54244C151.507 8.01077 151.877 7.6 152.351 7.31C152.833 7.02 153.38 6.875 153.991 6.875C154.739 6.875 155.318 7.08444 155.727 7.50333C156.145 7.91417 156.366 8.50622 156.391 9.27955C156.391 9.77094 156.362 10.1456 156.306 10.4033H152.158C152.174 11.2008 152.359 11.8452 152.713 12.3366C153.067 12.8199 153.569 13.0616 154.22 13.0616C154.541 13.0616 154.875 13.0052 155.221 12.8924C155.575 12.7716 155.848 12.6307 156.041 12.4696L156.27 13.0012C156.037 13.2429 155.691 13.4523 155.233 13.6296C154.775 13.8068 154.309 13.8954 153.834 13.8954ZM155.064 9.76288C155.088 9.59372 155.1 9.42049 155.1 9.24327C155.092 8.71966 154.98 8.30882 154.763 8.01077C154.554 7.70472 154.22 7.55167 153.762 7.55167C153.295 7.55167 152.922 7.72083 152.64 8.05917C152.367 8.3975 152.21 8.96538 152.17 9.76288H155.064Z" fill="white"/>
<path d="M62.3522 22.9596H61.2188V22.4037L62.3522 22.1742V21.6062C62.3522 21.1068 62.4809 20.6476 62.7381 20.2287C63.0034 19.8098 63.345 19.4796 63.763 19.2379C64.1889 18.9882 64.6395 18.8633 65.1138 18.8633C65.3868 18.8633 65.624 18.8996 65.8252 18.9721V20.1804C65.7528 20.116 65.6079 20.0555 65.3907 19.9991C65.1817 19.9347 64.949 19.9024 64.6914 19.9024C64.3139 19.9024 64.0363 20.0032 63.8595 20.2046C63.6907 20.3979 63.6062 20.7362 63.6062 21.2196V22.1742H65.2702V22.9596H63.6062V28.1796L64.9446 28.2762V28.8683H61.3273V28.2762L62.3522 28.1674V22.9596Z" fill="white"/>
<path d="M66.6953 25.4968C66.6953 24.7717 66.844 24.1434 67.1414 23.6118C67.4388 23.0801 67.8285 22.6773 68.3105 22.4034C68.8015 22.1215 69.3239 21.9805 69.8783 21.9805C70.891 21.9805 71.6512 22.3027 72.1575 22.9471C72.6722 23.5916 72.9292 24.4374 72.9292 25.4846C72.9292 26.2177 72.7805 26.8501 72.4831 27.3817C72.1857 27.9134 71.7915 28.3162 71.3012 28.5901C70.8192 28.864 70.3007 29.0009 69.7456 29.0009C68.7329 29.0009 67.9689 28.6787 67.4548 28.0342C66.9485 27.3898 66.6953 26.544 66.6953 25.4968ZM69.818 28.3122C70.3725 28.3122 70.7987 28.0826 71.0961 27.6234C71.3935 27.1642 71.5422 26.4835 71.5422 25.5813C71.5422 24.6871 71.4057 23.9783 71.1326 23.4547C70.859 22.9311 70.4212 22.6692 69.818 22.6692C69.2636 22.6692 68.8335 22.8988 68.5278 23.358C68.2304 23.8171 68.0817 24.4979 68.0817 25.4001C68.0817 26.2942 68.2227 27.0031 68.5034 27.5268C68.7848 28.0504 69.2232 28.3122 69.818 28.3122Z" fill="white"/>
<path d="M74.5391 28.2759L75.4435 28.2034V23.0921L74.5756 22.8746V22.2221L76.2395 22.0046H76.2639L76.5292 22.2221V22.4397L76.4927 23.3821H76.5292C76.6093 23.2453 76.7542 23.068 76.9632 22.8505C77.1721 22.633 77.4413 22.4356 77.7708 22.2584C78.1008 22.0731 78.4585 21.9805 78.8444 21.9805C79.0052 21.9805 79.1379 22.0006 79.2424 22.0409V23.3942C79.186 23.354 79.0937 23.3177 78.9649 23.2855C78.8444 23.2452 78.7078 23.2251 78.5546 23.2251C77.8874 23.2251 77.2689 23.4305 76.6978 23.8413V28.1913L78.229 28.288V28.868H74.5391V28.2759Z" fill="white"/>
<path d="M86.8175 19.8164H88.1436L91.0741 28.1539L91.8214 28.2747V28.8668H88.6385V28.2747L89.639 28.1539L89.0724 26.3656H85.5516L84.9844 28.1539L86.0214 28.2747V28.8668H83.1641V28.2747L83.9114 28.1539L86.8175 19.8164ZM87.577 21.7497L87.2758 20.6864L86.9861 21.7739L85.7683 25.6526H88.8436L87.577 21.7497Z" fill="white"/>
<path d="M95.3048 29.0018C94.8222 29.0018 94.3799 28.881 93.978 28.6393C93.5761 28.3977 93.255 28.0271 93.0134 27.5277C92.7807 27.0282 92.6641 26.4119 92.6641 25.6789C92.6641 24.9942 92.8044 24.3699 93.0858 23.806C93.3672 23.2421 93.7691 22.799 94.2914 22.4768C94.8222 22.1465 95.4452 21.9814 96.1611 21.9814C96.5707 21.9814 96.9444 22.0257 97.2821 22.1143V19.8547L96.0522 19.7097V19.1902L98.2231 18.9727H98.259L98.5243 19.166V28.2527H99.2236V28.8085C98.9666 28.8649 98.741 28.9092 98.548 28.9414C98.3634 28.9736 98.1667 28.9898 97.9577 28.9898C97.7488 28.9898 97.6001 28.9535 97.5116 28.881C97.4232 28.8085 97.3789 28.6554 97.3789 28.4218V28.0352C97.1533 28.309 96.8559 28.5386 96.4861 28.7239C96.1246 28.9092 95.731 29.0018 95.3048 29.0018ZM95.7868 28.1439C96.1002 28.1439 96.3938 28.0754 96.6675 27.9385C96.9405 27.7935 97.1456 27.6283 97.2821 27.443V23.0205C97.218 22.9239 97.0649 22.8393 96.8239 22.7668C96.5912 22.6863 96.3419 22.646 96.0765 22.646C95.4497 22.646 94.9471 22.8877 94.569 23.371C94.1991 23.8463 94.0146 24.5833 94.0146 25.5822C94.0146 26.4522 94.1793 27.0967 94.5087 27.5155C94.8382 27.9344 95.2644 28.1439 95.7868 28.1439Z" fill="white"/>
<path d="M103.274 29.0018C102.791 29.0018 102.349 28.881 101.947 28.6393C101.545 28.3977 101.224 28.0271 100.982 27.5277C100.749 27.0282 100.633 26.4119 100.633 25.6789C100.633 24.9942 100.773 24.3699 101.055 23.806C101.336 23.2421 101.738 22.799 102.261 22.4768C102.791 22.1465 103.414 21.9814 104.13 21.9814C104.539 21.9814 104.914 22.0257 105.251 22.1143V19.8547L104.021 19.7097V19.1902L106.192 18.9727H106.228L106.493 19.166V28.2527H107.192V28.8085C106.935 28.8649 106.71 28.9092 106.517 28.9414C106.332 28.9736 106.135 28.9898 105.926 28.9898C105.717 28.9898 105.569 28.9535 105.48 28.881C105.392 28.8085 105.348 28.6554 105.348 28.4218V28.0352C105.123 28.309 104.825 28.5386 104.455 28.7239C104.093 28.9092 103.7 29.0018 103.274 29.0018ZM103.756 28.1439C104.07 28.1439 104.363 28.0754 104.636 27.9385C104.909 27.7935 105.114 27.6283 105.251 27.443V23.0205C105.187 22.9239 105.034 22.8393 104.793 22.7668C104.56 22.6863 104.311 22.646 104.045 22.646C103.418 22.646 102.916 22.8877 102.538 23.371C102.168 23.8463 101.983 24.5833 101.983 25.5822C101.983 26.4522 102.148 27.0967 102.477 27.5155C102.808 27.9344 103.233 28.1439 103.756 28.1439Z" fill="white"/>
<path d="M110.06 20.9527C109.803 20.9527 109.61 20.8802 109.482 20.7352C109.353 20.5902 109.289 20.4049 109.289 20.1793C109.289 19.9215 109.366 19.708 109.518 19.5389C109.679 19.3697 109.896 19.2852 110.169 19.2852C110.442 19.2852 110.644 19.3577 110.772 19.5027C110.901 19.6477 110.965 19.8329 110.965 20.0585C110.965 20.3324 110.885 20.5499 110.724 20.711C110.571 20.8721 110.354 20.9527 110.073 20.9527H110.06ZM109.578 23.0914L108.662 22.8739V22.2335L110.531 22.0039H110.555L110.832 22.2214V28.1785L111.797 28.2752V28.8672H108.602V28.2752L109.578 28.1664V23.0914Z" fill="white"/>
<path d="M112.992 25.5571C112.992 24.8885 113.121 24.2844 113.378 23.7446C113.643 23.2049 114.029 22.778 114.536 22.4638C115.05 22.1416 115.665 21.9805 116.381 21.9805C116.726 21.9805 117.024 22.0127 117.273 22.0771C117.522 22.1416 117.82 22.2302 118.165 22.343L118.117 24.2038H117.333L117.068 22.9713C117.02 22.7457 116.714 22.633 116.151 22.633C115.589 22.633 115.143 22.8626 114.813 23.3218C114.491 23.7729 114.331 24.4173 114.331 25.2551C114.331 26.2056 114.512 26.9306 114.873 27.4301C115.243 27.9215 115.721 28.1671 116.308 28.1671C116.646 28.1671 116.964 28.1148 117.261 28.0101C117.567 27.9054 117.828 27.7805 118.045 27.6355L118.274 28.1188C118.057 28.3444 117.735 28.5498 117.309 28.7351C116.891 28.9123 116.465 29.0009 116.031 29.0009C115.372 29.0009 114.813 28.8519 114.355 28.5538C113.905 28.2557 113.563 27.849 113.33 27.3334C113.105 26.8098 112.992 26.2177 112.992 25.5571Z" fill="white"/>
<path d="M121.864 28.989C121.406 28.989 121.064 28.8842 120.839 28.6748C120.614 28.4653 120.501 28.1069 120.501 27.5994V22.9594H119.633V22.4156C119.673 22.4075 119.786 22.3794 119.971 22.331C120.156 22.2827 120.28 22.2384 120.344 22.1981C120.473 22.1256 120.574 21.9806 120.646 21.7631C120.71 21.61 120.787 21.3644 120.875 21.026C120.963 20.6877 121.016 20.4863 121.032 20.4219H121.743L121.767 22.1619H123.781V22.9594H121.767V26.6689C121.767 27.1281 121.779 27.4503 121.804 27.6356C121.836 27.8209 121.896 27.9417 121.984 27.9981C122.081 28.0545 122.241 28.0827 122.466 28.0827C122.684 28.0827 122.921 28.0545 123.178 27.9981C123.443 27.9417 123.648 27.8813 123.793 27.8169L123.974 28.3606C123.781 28.5056 123.468 28.6466 123.034 28.7835C122.607 28.9205 122.218 28.989 121.864 28.989Z" fill="white"/>
<path d="M126.615 20.9527C126.358 20.9527 126.165 20.8802 126.036 20.7352C125.908 20.5902 125.843 20.4049 125.843 20.1793C125.843 19.9215 125.92 19.708 126.073 19.5389C126.234 19.3697 126.45 19.2852 126.724 19.2852C126.997 19.2852 127.198 19.3577 127.327 19.5027C127.455 19.6477 127.519 19.8329 127.519 20.0585C127.519 20.3324 127.439 20.5499 127.278 20.711C127.126 20.8721 126.909 20.9527 126.627 20.9527H126.615ZM126.133 23.0914L125.217 22.8739V22.2335L127.086 22.0039H127.11L127.387 22.2214V28.1785L128.351 28.2752V28.8672H125.156V28.2752L126.133 28.1664V23.0914Z" fill="white"/>
<path d="M129.695 25.4968C129.695 24.7717 129.844 24.1434 130.141 23.6118C130.439 23.0801 130.829 22.6773 131.311 22.4034C131.801 22.1215 132.324 21.9805 132.879 21.9805C133.892 21.9805 134.651 22.3027 135.158 22.9471C135.672 23.5916 135.929 24.4374 135.929 25.4846C135.929 26.2177 135.781 26.8501 135.483 27.3817C135.186 27.9134 134.792 28.3162 134.301 28.5901C133.819 28.864 133.301 29.0009 132.746 29.0009C131.733 29.0009 130.97 28.6787 130.455 28.0342C129.948 27.3898 129.695 26.544 129.695 25.4968ZM132.818 28.3122C133.373 28.3122 133.799 28.0826 134.097 27.6234C134.394 27.1642 134.543 26.4835 134.543 25.5813C134.543 24.6871 134.406 23.9783 134.133 23.4547C133.86 22.9311 133.421 22.6692 132.818 22.6692C132.264 22.6692 131.834 22.8988 131.528 23.358C131.23 23.8171 131.082 24.4979 131.082 25.4001C131.082 26.2942 131.223 27.0031 131.504 27.5268C131.785 28.0504 132.223 28.3122 132.818 28.3122Z" fill="white"/>
<path d="M138.236 23.0914L137.367 22.8739V22.2214L139.092 22.0039H139.128L139.381 22.2214V22.7289L139.369 23.0189C139.659 22.7611 140.041 22.5275 140.515 22.3181C140.989 22.1086 141.443 22.0039 141.878 22.0039C142.384 22.0039 142.774 22.1006 143.047 22.2939C143.328 22.4872 143.525 22.7853 143.638 23.1881C143.75 23.5828 143.807 24.1185 143.807 24.7952V28.1785L144.651 28.2631V28.8672H141.793V28.2752L142.54 28.1785V24.7831C142.54 24.3078 142.508 23.9372 142.444 23.6714C142.379 23.3975 142.259 23.1961 142.082 23.0672C141.905 22.9303 141.648 22.8619 141.31 22.8619C141.021 22.8619 140.712 22.9344 140.382 23.0794C140.052 23.2244 139.759 23.3935 139.502 23.5869V28.1664L140.322 28.2752V28.8672H137.476V28.2752L138.236 28.1664V23.0914Z" fill="white"/>
<path d="M147.126 27.9002C147.206 28.021 147.375 28.1298 147.633 28.2265C147.897 28.3231 148.175 28.3715 148.464 28.3715C148.923 28.3715 149.26 28.2828 149.477 28.1056C149.694 27.9284 149.803 27.6827 149.803 27.3685C149.803 27.151 149.734 26.9617 149.598 26.8006C149.461 26.6395 149.268 26.4985 149.019 26.3777C148.778 26.2488 148.428 26.0957 147.97 25.9185C147.351 25.6849 146.897 25.407 146.607 25.0848C146.326 24.7545 146.185 24.3235 146.185 23.7918C146.185 23.4374 146.29 23.1273 146.499 22.8615C146.716 22.5956 147.01 22.3902 147.379 22.2452C147.757 22.0921 148.175 22.0156 148.633 22.0156C149.003 22.0156 149.325 22.0438 149.598 22.1002C149.879 22.1566 150.104 22.213 150.273 22.2693C150.442 22.3257 150.555 22.362 150.61 22.3781V23.8765H149.875L149.634 22.9823C149.586 22.8856 149.457 22.8051 149.248 22.7406C149.039 22.6681 148.806 22.6318 148.548 22.6318C148.187 22.6318 147.893 22.7124 147.668 22.8735C147.451 23.0346 147.343 23.2521 147.343 23.526C147.343 23.7677 147.399 23.9691 147.511 24.1302C147.633 24.2832 147.781 24.4081 147.957 24.5048C148.134 24.6015 148.376 24.7142 148.681 24.8431L148.923 24.9398C149.373 25.117 149.739 25.2862 150.02 25.4473C150.301 25.6084 150.534 25.8218 150.719 26.0877C150.912 26.3455 151.008 26.6637 151.008 27.0423C151.008 27.6384 150.775 28.1137 150.309 28.4681C149.851 28.8226 149.22 28.9998 148.416 28.9998C148.022 28.9998 147.608 28.9475 147.174 28.8427C146.748 28.73 146.398 28.6171 146.125 28.5043V26.9577H146.909L147.126 27.9002Z" fill="white"/>
</g>
<defs>
<clipPath id="clip0_3720_13739">
<rect width="156.393" height="29" fill="white"/>
</clipPath>
</defs>
</svg>
