<svg width="23" height="23" viewBox="0 0 23 23" fill="none" xmlns="http://www.w3.org/2000/svg">
<path fill-rule="evenodd" clip-rule="evenodd" d="M11.947 0.233507C11.7462 0.0819743 11.5015 0 11.25 0C10.9985 0 10.7538 0.0819743 10.553 0.233507C9.4835 1.03451 7.047 2.99851 4.903 5.73301C4.3925 6.38351 4.882 7.28851 5.681 7.28851H8.107C8.0485 8.57401 8 10.5435 8 13.5385V22.2885C8 22.3548 8.02634 22.4184 8.07322 22.4653C8.12011 22.5122 8.1837 22.5385 8.25 22.5385H14.25C14.3163 22.5385 14.3799 22.5122 14.4268 22.4653C14.4737 22.4184 14.5 22.3548 14.5 22.2885V13.5385C14.5 10.5435 14.4515 8.57401 14.393 7.28851H16.819C17.618 7.28851 18.1075 6.38401 17.597 5.73301C15.453 2.99801 13.0165 1.03451 11.947 0.234007V0.233507ZM3.25 22.5385H6.25C6.3163 22.5385 6.37989 22.5122 6.42678 22.4653C6.47366 22.4184 6.5 22.3548 6.5 22.2885V13.913C6.49987 13.5484 6.35494 13.1988 6.0971 12.9411C5.83925 12.6833 5.48959 12.5385 5.125 12.5385H3.25C2.489 12.5385 1.9225 12.554 1.5085 12.574C0.781 12.609 0.2105 13.094 0.1345 13.84C0.0645 14.527 0 15.667 0 17.5385C0 19.41 0.0645 20.55 0.1345 21.237C0.2105 21.9835 0.781 22.468 1.5085 22.503C1.9225 22.523 2.489 22.5385 3.25 22.5385ZM16.25 22.5385H19.25C20.011 22.5385 20.5775 22.523 20.9915 22.503C21.719 22.468 22.2895 21.983 22.3655 21.237C22.4355 20.55 22.5 19.41 22.5 17.5385C22.5 15.667 22.4355 14.527 22.3655 13.84C22.2895 13.0935 21.719 12.609 20.9915 12.574C20.4114 12.5483 19.8307 12.5365 19.25 12.5385H17.375C17.0104 12.5385 16.6608 12.6833 16.4029 12.9411C16.1451 13.1988 16.0001 13.5484 16 13.913V22.2885C16 22.3548 16.0263 22.4184 16.0732 22.4653C16.1201 22.5122 16.1837 22.5385 16.25 22.5385Z" fill="#0094FF"/>
</svg>
