<svg width="169" height="33" viewBox="0 0 169 33" fill="none" xmlns="http://www.w3.org/2000/svg">
<path d="M39.7145 25.7808V7.43837H40.4615L56.5564 23.471V7.43837H58.0504V25.7808H56.5564L41.2764 10.4954V25.7808H39.7145ZM64.1624 25.7808C63.3475 25.7808 62.6005 25.5091 61.9893 24.8976C61.3781 24.2862 61.1064 23.5389 61.1064 22.7237V16.6096C61.1064 15.7944 61.3781 15.0471 61.9893 14.4357C62.6005 13.8242 63.3475 13.5525 64.1624 13.5525H76.3864C77.2013 13.5525 77.9483 13.8242 78.5595 14.4357C79.1707 15.0471 79.4424 15.7264 79.4424 16.6096V20.4139H62.6684V22.7237C62.6684 23.1313 62.8042 23.5389 63.0758 23.8107C63.3475 24.0824 63.7549 24.2183 64.1624 24.2183H76.3864C76.7938 24.2183 77.1334 24.0824 77.4729 23.8107C77.7446 23.5389 77.9483 23.1313 77.9483 22.7237H79.4424C79.4424 23.5389 79.1707 24.2862 78.5595 24.8976C77.9483 25.5091 77.2692 25.7808 76.3864 25.7808H64.1624ZM77.9483 18.9194V16.6096C77.9483 16.202 77.8125 15.8623 77.4729 15.5226C77.1334 15.1829 76.7938 15.0471 76.3864 15.0471H64.1624C63.7549 15.0471 63.3475 15.1829 63.0758 15.5226C62.8042 15.7944 62.6684 16.202 62.6684 16.6096V18.9194H77.9483ZM85.5543 25.7808C84.7394 25.7808 83.9924 25.5091 83.3812 24.8976C82.77 24.2862 82.4984 23.5389 82.4984 22.7237V19.6667C82.4984 18.8514 82.77 18.1041 83.3812 17.4927C83.9924 16.8813 84.7394 16.6096 85.5543 16.6096H97.7783C98.3216 16.6096 98.8649 16.7455 99.2724 17.0172V16.6096C99.2724 16.202 99.1365 15.8623 98.797 15.5226C98.4574 15.1829 98.1179 15.0471 97.7104 15.0471H85.4864C85.079 15.0471 84.6715 15.1829 84.3999 15.5226C84.1282 15.7944 83.9924 16.202 83.9924 16.6096H82.4984C82.4984 15.7944 82.77 15.0471 83.3812 14.4357C83.9924 13.8242 84.7394 13.5525 85.5543 13.5525H97.7783C98.5932 13.5525 99.3403 13.8242 99.9515 14.4357C100.563 15.0471 100.834 15.7264 100.834 16.6096V25.7808H99.3403V25.3732C98.8649 25.6449 98.3895 25.7808 97.8462 25.7808H85.5543ZM97.7783 24.2183C98.1858 24.2183 98.5253 24.0824 98.8649 23.8107C99.1365 23.5389 99.3403 23.1313 99.3403 22.7237V19.6667C99.3403 19.259 99.2044 18.9194 98.8649 18.5797C98.5253 18.24 98.1858 18.1041 97.7783 18.1041H85.5543C85.1469 18.1041 84.7394 18.24 84.4678 18.5797C84.1961 18.8514 84.0603 19.259 84.0603 19.6667V22.7237C84.0603 23.1313 84.1961 23.5389 84.4678 23.8107C84.7394 24.0824 85.1469 24.2183 85.5543 24.2183H97.7783ZM103.89 25.7808V7.43837H105.384L113.805 24.2183L122.226 7.37044H123.72V25.7129H122.226V10.4954L114.62 25.7808H113.126L105.52 10.4954V25.7808H103.89ZM131.394 25.7808C130.579 25.7808 129.832 25.5091 129.221 24.8976C128.61 24.2862 128.338 23.5389 128.338 22.7237V16.6096C128.338 15.7944 128.61 15.0471 129.221 14.4357C129.832 13.8242 130.579 13.5525 131.394 13.5525H143.618C144.433 13.5525 145.18 13.8242 145.791 14.4357C146.403 15.0471 146.674 15.7264 146.674 16.6096V22.7237C146.674 23.5389 146.403 24.2862 145.791 24.8976C145.18 25.5091 144.501 25.7808 143.618 25.7808H131.394ZM143.618 24.2183C144.026 24.2183 144.365 24.0824 144.705 23.8107C144.976 23.5389 145.18 23.1313 145.18 22.7237V16.6096C145.18 16.202 145.044 15.8623 144.705 15.5226C144.365 15.1829 144.026 15.0471 143.618 15.0471H131.394C130.987 15.0471 130.579 15.1829 130.308 15.5226C130.036 15.7944 129.9 16.202 129.9 16.6096V22.7237C129.9 23.1313 130.036 23.5389 130.308 23.8107C130.579 24.0824 130.987 24.2183 131.394 24.2183H143.618ZM149.73 25.7808V7.43837H151.224V13.9601C151.7 13.6884 152.175 13.5525 152.718 13.5525H164.942C165.757 13.5525 166.504 13.8242 167.115 14.4357C167.727 15.0471 167.998 15.7264 167.998 16.6096V22.7237C167.998 23.5389 167.659 24.2862 167.115 24.8976C166.504 25.5091 165.757 25.7808 164.942 25.7808H152.718C152.175 25.7808 151.632 25.6449 151.224 25.3732V25.7808H149.73ZM165.01 24.2183C165.418 24.2183 165.757 24.0824 166.097 23.8107C166.368 23.5389 166.572 23.1313 166.572 22.7237V16.6096C166.572 16.202 166.436 15.8623 166.097 15.5226C165.757 15.1829 165.418 15.0471 165.01 15.0471H152.786C152.379 15.0471 151.971 15.1829 151.7 15.5226C151.428 15.7944 151.292 16.202 151.292 16.6096V22.7237C151.292 23.1313 151.428 23.5389 151.7 23.8107C151.971 24.0824 152.379 24.2183 152.786 24.2183H165.01Z" fill="white" stroke="white" stroke-width="0.25"/>
<path d="M29.7344 32.4091H2.94727C2.49886 32.4091 2.23011 32.3529 2.00488 32.2529C1.77379 32.1501 1.55086 31.9846 1.21094 31.6913C0.91888 31.3727 0.753875 31.151 0.65332 30.9198C0.553558 30.6905 0.500004 30.4131 0.5 29.9618V3.17375L29.7344 32.4091Z" fill="white" stroke="white"/>
<path d="M3.17058 0.49953L29.9577 0.499532C30.4061 0.499532 30.6748 0.555698 30.9001 0.655783C31.1312 0.758501 31.3541 0.924053 31.694 1.21731C31.9861 1.53594 32.1511 1.75766 32.2516 1.98879C32.3514 2.21812 32.405 2.49558 32.405 2.9468L32.405 29.7349L3.17058 0.49953Z" fill="white" stroke="white"/>
</svg>
