<svg width="20" height="19" viewBox="0 0 20 19" fill="none" xmlns="http://www.w3.org/2000/svg">
<path d="M16 0C17.0609 0 18.0783 0.421427 18.8284 1.17157C19.5786 1.92172 20 2.93913 20 4V12C20 13.0609 19.5786 14.0783 18.8284 14.8284C18.0783 15.5786 17.0609 16 16 16H11.276L6.514 18.857C6.37059 18.9431 6.20788 18.9918 6.04077 18.9987C5.87366 19.0056 5.70749 18.9705 5.55746 18.8966C5.40743 18.8227 5.27833 18.7123 5.18199 18.5756C5.08565 18.4389 5.02514 18.2802 5.006 18.114L5 18V16H4C2.97376 16 1.98677 15.6056 1.24319 14.8983C0.499605 14.191 0.0563122 13.225 0.00500011 12.2L0 12V4C0 2.93913 0.421427 1.92172 1.17157 1.17157C1.92172 0.421427 2.93913 0 4 0H16ZM10 10C9.73478 10 9.48043 10.1054 9.29289 10.2929C9.10536 10.4804 9 10.7348 9 11V11.01C9 11.2752 9.10536 11.5296 9.29289 11.7171C9.48043 11.9046 9.73478 12.01 10 12.01C10.2652 12.01 10.5196 11.9046 10.7071 11.7171C10.8946 11.5296 11 11.2752 11 11.01V11C11 10.7348 10.8946 10.4804 10.7071 10.2929C10.5196 10.1054 10.2652 10 10 10ZM10 4C9.73478 4 9.48043 4.10536 9.29289 4.29289C9.10536 4.48043 9 4.73478 9 5V8C9 8.26522 9.10536 8.51957 9.29289 8.70711C9.48043 8.89464 9.73478 9 10 9C10.2652 9 10.5196 8.89464 10.7071 8.70711C10.8946 8.51957 11 8.26522 11 8V5C11 4.73478 10.8946 4.48043 10.7071 4.29289C10.5196 4.10536 10.2652 4 10 4Z" fill="#0094FF"/>
</svg>
