<svg width="40" height="40" viewBox="0 0 40 40" fill="none" xmlns="http://www.w3.org/2000/svg">
<path d="M37.348 39.9258C37.1218 39.9738 36.8873 40 36.6468 40H3.37726C1.52241 40 0.0180084 38.4964 0.0178833 36.6416V3.3584C0.0179 3.11797 0.0430908 2.88335 0.0911255 2.65723L37.348 39.9258ZM36.6468 0C38.5016 0 40.0051 1.50358 40.0052 3.3584V36.6416C40.0052 36.8762 39.9816 37.1052 39.9359 37.3262L2.69073 0.0703125C2.91224 0.0243327 3.14212 0 3.37726 0H36.6468Z" fill="#000A18"/>
<mask id="mask0_3643_9705" style="mask-type:alpha" maskUnits="userSpaceOnUse" x="0" y="0" width="40" height="40">
<path d="M36.2109 38.8066C34.9928 39.562 33.5572 40 32.0186 40H7.96875C3.56774 40 3.99042e-05 36.4323 0 32.0312V7.96875C1.45559e-05 6.43046 0.436412 4.99428 1.19141 3.77637L36.2109 38.8066ZM32.0186 0C36.4196 0 39.9873 3.56772 39.9873 7.96875V32.0312C39.9873 33.5644 39.5531 34.9956 38.8027 36.2109L3.78711 1.18457C5.00271 0.433698 6.43501 1.46475e-05 7.96875 0H32.0186Z" fill="#0C0000"/>
</mask>
<g mask="url(#mask0_3643_9705)">
<path d="M-10.2689 -2.29241L-3.41394 -4.57812L49.1409 49.1362L-10.2689 51.4219V-2.29241Z" fill="#000A18"/>
</g>
</svg>
