<svg width="117" height="29" viewBox="0 0 117 29" fill="none" xmlns="http://www.w3.org/2000/svg">
<path d="M19.8804 19.1851L16.869 10.4995L18.5369 9.47628C18.8766 9.26872 19.1595 8.98034 19.3606 8.63686C19.5617 8.29337 19.6747 7.90546 19.6895 7.50772C19.7043 7.10997 19.6204 6.71474 19.4453 6.35728C19.2703 5.99982 19.0095 5.69124 18.6862 5.45905L11.9151 0.585145C11.386 0.204679 10.7507 0 10.099 0C9.44731 0 8.81206 0.204679 8.28294 0.585145L1.73681 5.27084C1.1731 5.67427 0.750786 6.24502 0.52983 6.90206C0.308873 7.55911 0.3005 8.26906 0.505899 8.93113L3.18406 17.5713L1.29334 18.6313C0.929522 18.8339 0.621605 19.1234 0.397156 19.4742C0.172706 19.8249 0.0387297 20.2258 0.00722067 20.641C-0.0242884 21.0561 0.0476537 21.4727 0.216606 21.8532C0.385558 22.2338 0.646247 22.5665 0.975333 22.8216L8.08824 28.3142C8.66397 28.761 9.37255 29.0023 10.1013 29C10.83 28.9976 11.537 28.7517 12.1098 28.3013L18.7295 23.1223C19.3087 22.6686 19.7318 22.0453 19.9397 21.3394C20.1476 20.6336 20.1298 19.8804 19.889 19.1851" fill="white"/>
<path d="M32.713 17.5747C33.4896 18.8727 34.9282 19.738 36.8363 19.738C38.6513 19.738 39.2873 18.89 39.2873 18.1112C39.2873 16.6748 37.4485 16.32 35.164 15.472C32.806 14.624 31.1814 13.352 31.1814 10.7127C31.1814 7.76634 33.8206 6.07031 36.8363 6.07031C39.6161 6.07031 41.3143 7.38992 42.3267 8.80472L39.8995 10.7365C39.3111 9.91232 38.3441 9.32174 36.9314 9.32174C35.588 9.32174 34.7681 9.88853 34.7681 10.6651C34.7681 12.0324 36.0661 12.0799 38.7248 13.1162C41.695 14.2476 42.9194 15.6386 42.9194 17.9944C42.9194 20.8932 40.9876 23.0132 36.8168 23.0132C33.282 23.0132 31.0905 21.3626 30.0781 19.3854L32.713 17.5747Z" fill="white"/>
<path d="M44.1953 16.7976C44.1953 13.0053 46.9276 10.5781 50.6268 10.5781C54.326 10.5781 56.7294 13.2628 56.7294 16.6094C56.7294 16.6094 56.7294 17.2 56.684 17.7408H47.7063C47.7756 19.1556 49.0043 20.0728 50.8626 20.0728C51.3991 20.0908 51.9337 19.9977 52.4325 19.7993C52.9314 19.6009 53.3838 19.3014 53.7614 18.9198L55.8122 20.8667C55.1617 21.5691 54.3694 22.1251 53.4877 22.4981C52.6061 22.871 51.6552 23.0524 50.6982 23.03C46.8345 23.03 44.1953 20.6028 44.1953 16.8798V16.7976ZM53.2033 15.4542C53.2033 14.3725 52.0481 13.4748 50.6333 13.4748C49.1017 13.4748 47.8534 14.3401 47.7583 15.4542H53.2033Z" fill="white"/>
<path d="M58.4844 10.8807H61.9954V12.3647C62.4886 11.3285 63.8082 10.6211 65.4567 10.6211C68.3793 10.6211 69.9996 12.4837 69.9996 15.5469V22.7572H66.495V15.9709C66.495 14.6037 65.7422 13.7319 64.3318 13.7319C64.0203 13.7209 63.7099 13.7744 63.4202 13.8891C63.1304 14.0039 62.8676 14.1773 62.6481 14.3986C62.4287 14.6199 62.2574 14.8842 62.1451 15.1749C62.0327 15.4656 61.9818 15.7764 61.9954 16.0877V22.7572H58.4844V10.8807Z" fill="white"/>
<path d="M73.3598 18.7994C73.9958 19.5543 75.2224 20.0973 76.6048 20.0973C77.8551 20.0973 78.396 19.6971 78.396 19.1325C78.396 18.3299 76.7713 18.2672 74.9563 17.6463C73.3057 17.0817 72.2219 16.132 72.2219 14.3473C72.2219 11.8033 74.4371 10.5312 76.8406 10.5312C78.9627 10.5312 80.3278 11.2624 81.2234 12.0629L79.5512 14.3711C79.032 13.9384 78.1364 13.5058 76.7389 13.5058C75.9363 13.5058 75.5599 13.8606 75.5599 14.2608C75.5599 15.0612 76.5269 14.9206 78.8048 15.721C80.9508 16.4522 81.7274 17.5836 81.7274 19.0914C81.7274 21.3758 80.1244 23.0978 76.4966 23.0978C73.8336 23.0978 72.2068 22.0832 71.3047 20.9756L73.3598 18.7994Z" fill="white"/>
<path d="M83.1484 7.88993C83.1484 7.35864 83.3595 6.84912 83.7352 6.47345C84.1108 6.09777 84.6204 5.88672 85.1516 5.88672C85.6829 5.88672 86.1925 6.09777 86.5681 6.47345C86.9438 6.84912 87.1549 7.35864 87.1549 7.88993C87.1549 8.42121 86.9438 8.93074 86.5681 9.30641C86.1925 9.68209 85.6829 9.89314 85.1516 9.89314C84.6204 9.89314 84.1108 9.68209 83.7352 9.30641C83.3595 8.93074 83.1484 8.42121 83.1484 7.88993ZM83.408 10.8818H86.9191V22.7582H83.408V10.8818Z" fill="white"/>
<path d="M89.2734 6.32812H92.791V12.4308C93.1198 11.3946 94.5108 10.6634 96.3258 10.6634C99.694 10.6634 102.216 13.3978 102.216 16.8136C102.216 20.2294 99.694 22.9639 96.3258 22.9639C94.5108 22.9639 93.1198 22.211 92.791 21.1964V22.7518H89.2734V6.32812ZM95.6833 19.7838C96.0799 19.7945 96.4747 19.7256 96.8443 19.5812C97.2139 19.4368 97.5508 19.2199 97.8351 18.9431C98.1195 18.6663 98.3455 18.3354 98.4998 17.9698C98.6541 17.6043 98.7336 17.2115 98.7336 16.8147C98.7336 16.4179 98.6541 16.0251 98.4998 15.6596C98.3455 15.294 98.1195 14.9631 97.8351 14.6863C97.5508 14.4095 97.2139 14.1925 96.8443 14.0481C96.4747 13.9037 96.0799 13.8349 95.6833 13.8456C93.9635 13.8391 92.5746 15.1371 92.5746 16.8136C92.5746 18.4902 93.9656 19.7838 95.6854 19.7838" fill="white"/>
<path d="M110.115 10.5312C113.769 10.5312 116.713 13.3111 116.713 16.8221C116.713 20.3331 113.769 23.113 110.115 23.113C106.461 23.113 103.523 20.3375 103.523 16.8221C103.523 13.3068 106.437 10.5312 110.115 10.5312ZM110.115 19.9329C110.731 19.9376 111.335 19.7592 111.85 19.4203C112.364 19.0813 112.767 18.5971 113.006 18.0291C113.245 17.4612 113.31 16.8349 113.193 16.2299C113.075 15.6249 112.781 15.0684 112.347 14.631C111.913 14.1935 111.359 13.8949 110.754 13.7729C110.15 13.6509 109.524 13.7111 108.954 13.9459C108.384 14.1806 107.897 14.5793 107.554 15.0914C107.211 15.6035 107.028 16.2058 107.028 16.8221C107.023 17.23 107.099 17.6347 107.253 18.0128C107.406 18.3909 107.632 18.7347 107.92 19.0242C108.207 19.3138 108.549 19.5432 108.926 19.6992C109.303 19.8552 109.707 19.9347 110.115 19.9329Z" fill="white"/>
</svg>
