<svg width="113" height="40" viewBox="0 0 113 40" fill="none" xmlns="http://www.w3.org/2000/svg">
<g clip-path="url(#clip0_3926_15144)">
<path d="M22.2573 12.1484H0.868615C0.388893 12.1484 0 12.5367 0 13.0156V17.0053C0 17.4842 0.388893 17.8725 0.868615 17.8725H22.2573C22.737 17.8725 23.126 17.4842 23.126 17.0053V13.0156C23.126 12.5367 22.737 12.1484 22.2573 12.1484Z" fill="#ABBED9"/>
<path d="M43.5736 0.015625C49.6744 0.015625 53.2035 3.54089 53.2035 8.28336C53.2035 11.4603 51.1996 14.0706 48.6724 14.8969C51.4613 15.549 54.1628 18.1165 54.1628 22.1198C54.1628 27.1678 50.3276 30.8656 44.4884 30.8656H32.8921C32.6617 30.8656 32.4408 30.7742 32.2779 30.6115C32.115 30.449 32.0234 30.2283 32.0234 29.9983V0.882857C32.024 0.65299 32.1156 0.432669 32.2784 0.270129C32.4411 0.10759 32.6619 0.0160761 32.8921 0.015625H43.5736ZM42.4861 12.3737C44.88 12.3737 46.453 11.1121 46.453 9.02256C46.453 7.02178 45.1023 5.7158 42.3989 5.7158H38.7347V12.3737H42.4861ZM43.0504 25.2542C45.7093 25.2542 47.3251 23.8628 47.3251 21.6435C47.3251 19.5113 45.7554 18.0312 43.0504 18.0312H38.7347V25.2542H43.0504Z" fill="#ABBED9"/>
<path d="M61.6695 0H56.7827C56.303 0 55.9141 0.388274 55.9141 0.867233V30.0014C55.9141 30.4804 56.303 30.8687 56.7827 30.8687H61.6695C62.1492 30.8687 62.5381 30.4804 62.5381 30.0014V0.867233C62.5381 0.388274 62.1492 0 61.6695 0Z" fill="#ABBED9"/>
<path d="M68.8245 37.9633L73.2155 27.9525L64.7123 10.4884C64.6479 10.3562 64.6183 10.2098 64.6263 10.063C64.6341 9.91623 64.6793 9.77385 64.7573 9.64924C64.8355 9.52465 64.9441 9.42192 65.0728 9.35072C65.2016 9.27951 65.3465 9.24217 65.4937 9.24219H70.9551C71.1224 9.24234 71.2862 9.29076 71.4266 9.38161C71.567 9.47246 71.6782 9.6019 71.7467 9.75433L76.7908 20.8167L81.3612 9.77994C81.4272 9.6213 81.5387 9.48572 81.6818 9.39031C81.8248 9.29491 81.9929 9.24395 82.165 9.2439H87.2637C87.4084 9.244 87.5507 9.28015 87.6777 9.34907C87.8048 9.41799 87.9127 9.5175 87.9915 9.63857C88.0703 9.75963 88.1175 9.89843 88.129 10.0424C88.1405 10.1863 88.1158 10.3308 88.0571 10.4628L75.4947 38.6649C75.4257 38.8176 75.3139 38.9472 75.1729 39.0381C75.0318 39.1289 74.8674 39.1771 74.6997 39.1771H69.6214C69.4771 39.1771 69.3351 39.1414 69.2082 39.073C69.0812 39.0046 68.9734 38.9056 68.8943 38.7852C68.8153 38.6648 68.7675 38.5266 68.7553 38.3831C68.7432 38.2396 68.7669 38.0953 68.8245 37.9633Z" fill="#ABBED9"/>
<path d="M90.1641 38.2661V10.1084C90.1641 9.99448 90.1866 9.88171 90.2301 9.7765C90.2738 9.67128 90.3378 9.57567 90.4184 9.49515C90.4992 9.41462 90.5949 9.35074 90.7003 9.30715C90.8056 9.26357 90.9186 9.24114 91.0326 9.24114H95.7023C95.8163 9.24114 95.9293 9.26357 96.0347 9.30715C96.1401 9.35074 96.2359 9.41462 96.3165 9.49515C96.3971 9.57567 96.4611 9.67128 96.5048 9.7765C96.5485 9.88171 96.571 9.99448 96.571 10.1084V11.4604C97.4857 10.0674 99.8401 8.71875 102.934 8.71875C109.21 8.71875 113.001 13.4988 113.001 19.986C113.001 26.5994 108.727 31.3436 102.672 31.3436C99.8829 31.3436 97.7918 30.3859 96.7881 29.167V38.2644C96.7881 38.4944 96.6966 38.715 96.5337 38.8777C96.3707 39.0402 96.1499 39.1316 95.9195 39.1316H91.0326C90.8027 39.1312 90.5823 39.0399 90.4195 38.8778C90.2568 38.7156 90.165 38.4957 90.1641 38.2661ZM101.583 14.6801C99.0177 14.6801 96.7009 16.4197 96.7009 20.032C96.7009 23.6 99.0109 25.4266 101.583 25.4266C104.197 25.4266 106.507 23.6427 106.507 20.032C106.507 16.4215 104.197 14.6801 101.583 14.6801Z" fill="#ABBED9"/>
<path d="M28.8757 20.1445H8.07175C7.59202 20.1445 7.20312 20.5327 7.20312 21.0117V25.0014C7.20312 25.4803 7.59202 25.8686 8.07175 25.8686H28.8757C29.3554 25.8686 29.7443 25.4803 29.7443 25.0014V21.0117C29.7443 20.5327 29.3554 20.1445 28.8757 20.1445Z" fill="#ABBED9"/>
<path d="M28.8783 4.15234H13.2279C12.7482 4.15234 12.3594 4.54062 12.3594 5.01958V9.0092C12.3594 9.48815 12.7482 9.87643 13.2279 9.87643H28.8783C29.3581 9.87643 29.747 9.48815 29.747 9.0092V5.01958C29.747 4.54062 29.3581 4.15234 28.8783 4.15234Z" fill="#ABBED9"/>
<path d="M34.3787 12.1484H26.2671C25.7874 12.1484 25.3984 12.5367 25.3984 13.0156V17.0053C25.3984 17.4842 25.7874 17.8725 26.2671 17.8725H34.3787C34.8584 17.8725 35.2473 17.4842 35.2473 17.0053V13.0156C35.2473 12.5367 34.8584 12.1484 34.3787 12.1484Z" fill="#ABBED9"/>
</g>
<defs>
<clipPath id="clip0_3926_15144">
<rect width="113" height="40" fill="white"/>
</clipPath>
</defs>
</svg>
