<svg width="217" height="40" viewBox="0 0 217 40" fill="none" xmlns="http://www.w3.org/2000/svg">
<g clip-path="url(#clip0_3926_15167)">
<path d="M41.4208 10.4739C41.4208 12.7463 39.5777 14.5885 37.3042 14.5885C35.0306 14.5885 33.1875 12.7463 33.1875 10.4739C33.1875 8.20151 35.0306 6.35938 37.3042 6.35938C39.5777 6.35938 41.4208 8.20151 41.4208 10.4739Z" fill="#A4ABBD"/>
<path d="M41.4208 10.4739C41.4208 12.7463 39.5777 14.5885 37.3042 14.5885C35.0306 14.5885 33.1875 12.7463 33.1875 10.4739C33.1875 8.20151 35.0306 6.35938 37.3042 6.35938C39.5777 6.35938 41.4208 8.20151 41.4208 10.4739Z" fill="#A4ABBD"/>
<path fill-rule="evenodd" clip-rule="evenodd" d="M52.5204 0C51.0941 8.10464 45.2132 22.3861 38.4231 28.3047C31.0798 34.7056 24.087 35.4286 15.8884 34.7056C23.3636 34.2236 27.4629 32.0545 27.8189 27.0576C28.3952 18.9693 23.4525 12.4688 18.9614 8.10464C19.8044 8.64286 20.6999 9.26453 21.6433 9.91938C25.7265 12.7539 30.7051 16.2098 36.1775 16.2098C44.9104 16.2098 50.8529 3.85618 52.5204 0ZM0 32.1696C4.49115 34.414 13.7229 38.2028 23.0796 37.5313C32.7583 36.8366 38.7975 32.7774 43.9135 26.4339C38.7975 36.1516 31.1886 39.0276 25.0756 39.5263C17.2161 40.1676 7.98427 37.5313 0 32.1696Z" fill="#A4ABBD"/>
<path fill-rule="evenodd" clip-rule="evenodd" d="M52.5204 0C51.0941 8.10464 45.2132 22.3861 38.4231 28.3047C31.0798 34.7056 24.087 35.4286 15.8884 34.7056C23.3636 34.2236 27.4629 32.0545 27.8189 27.0576C28.3952 18.9693 23.4525 12.4688 18.9614 8.10464C19.8044 8.64286 20.6999 9.26453 21.6433 9.91938C25.7265 12.7539 30.7051 16.2098 36.1775 16.2098C44.9104 16.2098 50.8529 3.85618 52.5204 0ZM0 32.1696C4.49115 34.414 13.7229 38.2028 23.0796 37.5313C32.7583 36.8366 38.7975 32.7774 43.9135 26.4339C38.7975 36.1516 31.1886 39.0276 25.0756 39.5263C17.2161 40.1676 7.98427 37.5313 0 32.1696Z" fill="#A4ABBD"/>
<path d="M78.702 19.1648C77.475 19.1648 76.4265 18.9037 75.5565 18.3815C74.6976 17.8481 74.0451 17.1037 73.5989 16.1481C73.1527 15.1926 72.9297 14.0704 72.9297 12.7816C72.9297 11.5371 73.1918 10.4371 73.716 9.48156C74.2403 8.52596 74.9597 7.78707 75.8744 7.26484C76.789 6.73151 77.8152 6.46484 78.9529 6.46484C79.8118 6.46484 80.8436 6.59818 82.0482 6.86484L82.6003 6.96484L82.433 9.96484H81.312L80.8938 7.84818C80.7376 7.71484 80.4643 7.60373 80.074 7.51484C79.6947 7.41484 79.2262 7.36484 78.6685 7.36484C77.9547 7.36484 77.3189 7.5704 76.7612 7.98151C76.2035 8.38151 75.7629 8.97595 75.4394 9.76484C75.1271 10.5537 74.9709 11.4982 74.9709 12.5982C74.9709 13.6426 75.1104 14.5926 75.3892 15.4481C75.6681 16.3037 76.0919 16.9871 76.6608 17.4982C77.2296 17.9982 77.9323 18.2481 78.7689 18.2481C79.3601 18.2481 79.8118 18.1982 80.1241 18.0982C80.4476 17.9982 80.7209 17.8537 80.9439 17.6648L81.6467 16.0315L82.7007 16.1648L82.2992 18.5315C82.0649 18.5426 81.7192 18.6204 81.2619 18.7648C80.8603 18.8871 80.4699 18.9816 80.0907 19.0482C79.7226 19.126 79.2597 19.1648 78.702 19.1648Z" fill="#A4ABBD"/>
<path d="M84.7266 16.4851C84.7266 15.4407 85.2508 14.674 86.2993 14.1851C87.3478 13.6851 88.6752 13.4185 90.2812 13.3852V12.9185C90.2812 12.3963 90.2252 11.9851 90.114 11.6851C90.0029 11.3851 89.8072 11.1685 89.5288 11.0352C89.2611 10.8907 88.8759 10.8184 88.3739 10.8184C87.8051 10.8184 87.2921 10.9018 86.8348 11.0685C86.3886 11.224 85.9424 11.4184 85.4962 11.6518L85.0779 10.7852C85.2229 10.663 85.4906 10.5018 85.881 10.3018C86.2714 10.1018 86.7231 9.92404 87.2363 9.76849C87.7494 9.61293 88.2624 9.53516 88.7756 9.53516C89.5671 9.53516 90.1923 9.64627 90.6494 9.86849C91.1181 10.0796 91.4525 10.424 91.6535 10.9018C91.8545 11.3796 91.9541 12.0184 91.9541 12.8184V18.1685H92.9413V18.9018C92.7189 18.9574 92.4343 19.0129 92.0884 19.0685C91.754 19.124 91.4578 19.1518 91.2017 19.1518C90.8895 19.1518 90.677 19.1018 90.5658 19.0018C90.4546 18.9129 90.3986 18.7073 90.3986 18.3851V17.8352C90.0642 18.1685 89.6516 18.474 89.1606 18.7518C88.6808 19.0296 88.1342 19.1685 87.5207 19.1685C86.7176 19.1685 86.0483 18.9407 85.5129 18.4851C84.9886 18.0184 84.7266 17.3518 84.7266 16.4851ZM88.2401 18.0352C88.5301 18.0352 88.8648 17.9463 89.2442 17.7685C89.6231 17.5907 89.9691 17.3796 90.2812 17.1352V14.2685C89.0655 14.2685 88.1453 14.4574 87.5207 14.8352C86.9072 15.2018 86.6005 15.6851 86.6005 16.2851C86.6005 16.8851 86.7455 17.3296 87.0355 17.6184C87.3366 17.8962 87.7382 18.0352 88.2401 18.0352Z" fill="#A4ABBD"/>
<path d="M95.7823 11.0156L94.5781 10.7155V9.81563L96.9705 9.51562H97.0203L97.3716 9.81563V10.5156L97.3555 10.9156C97.7566 10.5601 98.2867 10.2378 98.9448 9.94887C99.6029 9.65998 100.233 9.51562 100.836 9.51562C101.538 9.51562 102.079 9.64896 102.458 9.91562C102.848 10.1823 103.122 10.5934 103.278 11.149C103.434 11.6934 103.512 12.4322 103.512 13.3656V18.0322L104.684 18.1489V18.9822H100.718V18.1656L101.755 18.0322V13.3489C101.755 12.6933 101.711 12.1823 101.622 11.8156C101.533 11.4378 101.365 11.1601 101.119 10.9823C100.875 10.7934 100.517 10.6989 100.048 10.6989C99.6474 10.6989 99.2178 10.7989 98.7607 10.9989C98.3036 11.1989 97.8963 11.4322 97.5387 11.6989V18.0155L98.6771 18.1656V18.9822H94.7284V18.1656L95.7823 18.0155V11.0156Z" fill="#A4ABBD"/>
<path d="M106.555 16.4851C106.555 15.4407 107.079 14.674 108.127 14.1851C109.176 13.6851 110.503 13.4185 112.11 13.3852V12.9185C112.11 12.3963 112.054 11.9851 111.942 11.6851C111.83 11.3851 111.636 11.1685 111.356 11.0352C111.089 10.8907 110.703 10.8184 110.202 10.8184C109.633 10.8184 109.12 10.9018 108.662 11.0685C108.217 11.224 107.77 11.4184 107.324 11.6518L106.906 10.7852C107.051 10.663 107.319 10.5018 107.709 10.3018C108.099 10.1018 108.551 9.92404 109.064 9.76849C109.578 9.61293 110.091 9.53516 110.604 9.53516C111.395 9.53516 112.02 9.64627 112.478 9.86849C112.946 10.0796 113.281 10.424 113.481 10.9018C113.682 11.3796 113.782 12.0184 113.782 12.8184V18.1685H114.77V18.9018C114.546 18.9574 114.262 19.0129 113.917 19.0685C113.581 19.124 113.286 19.1518 113.03 19.1518C112.717 19.1518 112.505 19.1018 112.394 19.0018C112.282 18.9129 112.226 18.7073 112.226 18.3851V17.8352C111.892 18.1685 111.479 18.474 110.988 18.7518C110.509 19.0296 109.962 19.1685 109.349 19.1685C108.546 19.1685 107.876 18.9407 107.341 18.4851C106.817 18.0184 106.555 17.3518 106.555 16.4851ZM110.068 18.0352C110.358 18.0352 110.693 17.9463 111.072 17.7685C111.451 17.5907 111.797 17.3796 112.11 17.1352V14.2685C110.894 14.2685 109.973 14.4574 109.349 14.8352C108.735 15.2018 108.429 15.6851 108.429 16.2851C108.429 16.8851 108.573 17.3296 108.863 17.6184C109.165 17.8962 109.566 18.0352 110.068 18.0352Z" fill="#A4ABBD"/>
<path d="M120.219 19.1654C119.549 19.1654 118.935 18.9987 118.378 18.6654C117.82 18.332 117.374 17.8209 117.039 17.132C116.716 16.4431 116.555 15.5931 116.555 14.582C116.555 13.6375 116.749 12.7765 117.14 11.9987C117.53 11.2209 118.088 10.6098 118.813 10.1654C119.549 9.70981 120.414 9.48208 121.406 9.48208C121.975 9.48208 122.494 9.54314 122.962 9.66536V6.5487L121.256 6.3487V5.63203L124.267 5.33203H124.318L124.686 5.5987V18.132H125.656V18.8987C125.299 18.9765 124.987 19.0375 124.719 19.082C124.463 19.1264 124.19 19.1487 123.899 19.1487C123.609 19.1487 123.403 19.0987 123.28 18.9987C123.157 18.8987 123.096 18.6876 123.096 18.3654V17.832C122.784 18.2098 122.371 18.5264 121.858 18.782C121.356 19.0375 120.809 19.1654 120.219 19.1654ZM120.888 17.9821C121.322 17.9821 121.73 17.8876 122.109 17.6987C122.488 17.4987 122.773 17.2709 122.962 17.0153V10.9154C122.873 10.7821 122.661 10.6654 122.327 10.5654C122.003 10.4543 121.658 10.3987 121.29 10.3987C120.419 10.3987 119.722 10.732 119.198 11.3987C118.685 12.0543 118.429 13.071 118.429 14.4487C118.429 15.6487 118.657 16.5375 119.114 17.1153C119.571 17.6931 120.163 17.9821 120.888 17.9821Z" fill="#A4ABBD"/>
<path d="M129.641 8.06562C129.285 8.06562 129.017 7.96563 128.838 7.76563C128.66 7.56563 128.571 7.31007 128.571 6.99896C128.571 6.6434 128.676 6.34896 128.888 6.11562C129.111 5.88229 129.413 5.76562 129.792 5.76562C130.171 5.76562 130.45 5.86562 130.629 6.06562C130.807 6.26562 130.896 6.52118 130.896 6.83229C130.896 7.21007 130.785 7.51007 130.562 7.73229C130.349 7.95451 130.049 8.06562 129.658 8.06562H129.641ZM128.973 11.0157L127.701 10.7156V9.83229L130.294 9.51567H130.327L130.712 9.81567V18.0323L132.051 18.1656V18.9822H127.617V18.1656L128.973 18.0156V11.0157Z" fill="#A4ABBD"/>
<path d="M133.906 16.4851C133.906 15.4407 134.43 14.674 135.479 14.1851C136.527 13.6851 137.854 13.4185 139.46 13.3852V12.9185C139.46 12.3963 139.405 11.9851 139.293 11.6851C139.182 11.3851 138.986 11.1685 138.708 11.0352C138.44 10.8907 138.055 10.8184 137.553 10.8184C136.984 10.8184 136.471 10.9018 136.014 11.0685C135.568 11.224 135.122 11.4184 134.676 11.6518L134.258 10.7852C134.403 10.663 134.67 10.5018 135.061 10.3018C135.451 10.1018 135.903 9.92404 136.416 9.76849C136.928 9.61293 137.441 9.53516 137.955 9.53516C138.747 9.53516 139.371 9.64627 139.828 9.86849C140.297 10.0796 140.631 10.424 140.832 10.9018C141.033 11.3796 141.134 12.0184 141.134 12.8184V18.1685H142.121V18.9018C141.898 18.9574 141.613 19.0129 141.267 19.0685C140.933 19.124 140.638 19.1518 140.381 19.1518C140.069 19.1518 139.857 19.1018 139.745 19.0018C139.634 18.9129 139.578 18.7073 139.578 18.3851V17.8352C139.243 18.1685 138.831 18.474 138.34 18.7518C137.86 19.0296 137.313 19.1685 136.7 19.1685C135.897 19.1685 135.228 18.9407 134.692 18.4851C134.168 18.0184 133.906 17.3518 133.906 16.4851ZM137.419 18.0352C137.709 18.0352 138.044 17.9463 138.423 17.7685C138.802 17.5907 139.148 17.3796 139.46 17.1352V14.2685C138.244 14.2685 137.325 14.4574 136.7 14.8352C136.087 15.2018 135.78 15.6851 135.78 16.2851C135.78 16.8851 135.925 17.3296 136.215 17.6184C136.516 17.8962 136.918 18.0352 137.419 18.0352Z" fill="#A4ABBD"/>
<path d="M144.954 11.0156L143.75 10.7155V9.81563L146.142 9.51562H146.193L146.544 9.81563V10.5156L146.527 10.9156C146.929 10.5601 147.459 10.2378 148.117 9.94887C148.775 9.65998 149.405 9.51562 150.007 9.51562C150.71 9.51562 151.251 9.64896 151.63 9.91562C152.021 10.1823 152.294 10.5934 152.45 11.149C152.606 11.6934 152.684 12.4322 152.684 13.3656V18.0322L153.856 18.1489V18.9822H149.89V18.1656L150.928 18.0322V13.3489C150.928 12.6933 150.883 12.1823 150.794 11.8156C150.705 11.4378 150.537 11.1601 150.292 10.9823C150.047 10.7934 149.69 10.6989 149.221 10.6989C148.819 10.6989 148.39 10.7989 147.933 10.9989C147.475 11.1989 147.068 11.4322 146.712 11.6989V18.0155L147.849 18.1656V18.9822H143.9V18.1656L144.954 18.0155V11.0156Z" fill="#A4ABBD"/>
<path d="M165.945 19.1648C164.717 19.1648 163.669 18.9037 162.799 18.3815C161.94 17.8481 161.288 17.1037 160.842 16.1481C160.395 15.1926 160.172 14.0704 160.172 12.7816C160.172 11.5371 160.434 10.4371 160.959 9.48156C161.483 8.52596 162.202 7.78707 163.116 7.26484C164.032 6.73151 165.058 6.46484 166.195 6.46484C167.055 6.46484 168.086 6.59818 169.29 6.86484L169.843 6.96484L169.675 9.96484H168.555L168.136 7.84818C167.98 7.71484 167.707 7.60373 167.317 7.51484C166.937 7.41484 166.468 7.36484 165.911 7.36484C165.198 7.36484 164.562 7.5704 164.004 7.98151C163.446 8.38151 163.005 8.97595 162.682 9.76484C162.369 10.5537 162.214 11.4982 162.214 12.5982C162.214 13.6426 162.353 14.5926 162.632 15.4481C162.91 16.3037 163.334 16.9871 163.904 17.4982C164.472 17.9982 165.174 18.2481 166.011 18.2481C166.603 18.2481 167.055 18.1982 167.367 18.0982C167.69 17.9982 167.963 17.8537 168.187 17.6648L168.889 16.0315L169.943 16.1648L169.542 18.5315C169.307 18.5426 168.961 18.6204 168.504 18.7648C168.103 18.8871 167.713 18.9816 167.333 19.0482C166.965 19.126 166.502 19.1648 165.945 19.1648Z" fill="#A4ABBD"/>
<path d="M176.087 19.1677C174.737 19.1677 173.706 18.7287 172.991 17.851C172.289 16.9732 171.938 15.801 171.938 14.3343C171.938 13.3677 172.122 12.5176 172.49 11.7843C172.858 11.051 173.371 10.4844 174.029 10.0844C174.698 9.68437 175.457 9.48438 176.304 9.48438C177.342 9.48438 178.145 9.77326 178.713 10.351C179.293 10.9177 179.6 11.7343 179.634 12.801C179.634 13.4788 179.595 13.9955 179.516 14.351H173.762C173.784 15.451 174.04 16.3398 174.531 17.0176C175.022 17.6843 175.719 18.0176 176.623 18.0176C177.068 18.0176 177.531 17.9398 178.011 17.7843C178.502 17.6176 178.881 17.4232 179.148 17.201L179.467 17.9343C179.143 18.2677 178.664 18.5566 178.028 18.801C177.392 19.0454 176.745 19.1677 176.087 19.1677ZM177.794 13.4677C177.827 13.2343 177.844 12.9954 177.844 12.751C177.832 12.0287 177.676 11.4621 177.375 11.051C177.085 10.6288 176.623 10.4177 175.987 10.4177C175.339 10.4177 174.821 10.651 174.43 11.1177C174.051 11.5844 173.834 12.3677 173.778 13.4677H177.794Z" fill="#A4ABBD"/>
<path d="M182.743 11.0156L181.539 10.7155V9.81563L183.931 9.51562H183.981L184.332 9.81563V10.5156L184.316 10.9156C184.718 10.5601 185.248 10.2378 185.906 9.94887C186.564 9.65998 187.194 9.51562 187.796 9.51562C188.499 9.51562 189.04 9.64896 189.42 9.91562C189.81 10.1823 190.083 10.5934 190.239 11.149C190.395 11.6934 190.473 12.4322 190.473 13.3656V18.0322L191.645 18.1489V18.9822H187.679V18.1656L188.716 18.0322V13.3489C188.716 12.6933 188.672 12.1823 188.583 11.8156C188.494 11.4378 188.326 11.1601 188.081 10.9823C187.836 10.7934 187.478 10.6989 187.009 10.6989C186.608 10.6989 186.179 10.7989 185.722 10.9989C185.265 11.1989 184.857 11.4322 184.501 11.6989V18.0155L185.638 18.1656V18.9822H181.689V18.1656L182.743 18.0155V11.0156Z" fill="#A4ABBD"/>
<path d="M196.384 19.1487C195.748 19.1487 195.274 19.0042 194.962 18.7153C194.65 18.4264 194.493 17.932 194.493 17.232V10.832H193.289V10.0821C193.344 10.071 193.501 10.032 193.757 9.96536C194.014 9.8987 194.186 9.83754 194.275 9.78199C194.454 9.68199 194.594 9.48208 194.694 9.18208C194.783 8.97096 194.889 8.63203 195.012 8.16536C195.134 7.6987 195.207 7.42092 195.23 7.33203H196.217L196.25 9.73203H199.044V10.832H196.25V15.9487C196.25 16.582 196.267 17.0265 196.3 17.2821C196.345 17.5376 196.428 17.7042 196.551 17.782C196.685 17.8598 196.908 17.8987 197.221 17.8987C197.521 17.8987 197.851 17.8598 198.208 17.782C198.575 17.7042 198.86 17.6209 199.061 17.532L199.312 18.282C199.044 18.482 198.609 18.6765 198.007 18.8654C197.416 19.0543 196.875 19.1487 196.384 19.1487Z" fill="#A4ABBD"/>
<path d="M201.039 18.1677L202.294 18.0677V11.0177L201.09 10.7176V9.81771L203.398 9.51771H203.431L203.8 9.81771V10.1177L203.75 11.4176H203.8C203.912 11.2287 204.113 10.9844 204.403 10.6844C204.692 10.3844 205.066 10.1121 205.523 9.86766C205.98 9.61211 206.477 9.48438 207.012 9.48438C207.235 9.48438 207.419 9.51211 207.564 9.56766V11.4343C207.487 11.3788 207.358 11.3287 207.18 11.2843C207.012 11.2288 206.822 11.201 206.611 11.201C205.685 11.201 204.826 11.4844 204.034 12.051V18.051L206.159 18.1843V18.9843H201.039V18.1677Z" fill="#A4ABBD"/>
<path d="M213.454 19.1677C212.104 19.1677 211.073 18.7287 210.359 17.851C209.656 16.9732 209.305 15.801 209.305 14.3343C209.305 13.3677 209.489 12.5176 209.857 11.7843C210.225 11.051 210.738 10.4844 211.396 10.0844C212.065 9.68437 212.824 9.48438 213.671 9.48438C214.709 9.48438 215.512 9.77326 216.081 10.351C216.66 10.9177 216.967 11.7343 217.001 12.801C217.001 13.4788 216.962 13.9955 216.884 14.351H211.129C211.151 15.451 211.407 16.3398 211.898 17.0176C212.389 17.6843 213.086 18.0176 213.99 18.0176C214.435 18.0176 214.899 17.9398 215.378 17.7843C215.869 17.6176 216.248 17.4232 216.515 17.201L216.834 17.9343C216.51 18.2677 216.031 18.5566 215.395 18.801C214.759 19.0454 214.112 19.1677 213.454 19.1677ZM215.161 13.4677C215.194 13.2343 215.211 12.9954 215.211 12.751C215.199 12.0287 215.044 11.4621 214.742 11.051C214.452 10.6288 213.99 10.4177 213.354 10.4177C212.706 10.4177 212.188 10.651 211.798 11.1177C211.419 11.5844 211.201 12.3677 211.145 13.4677H215.161Z" fill="#A4ABBD"/>
<path d="M86.518 31.6657H84.9453V30.899L86.518 30.5824V29.799C86.518 29.1101 86.6965 28.4768 87.0534 27.899C87.4215 27.3212 87.8955 26.8657 88.4756 26.5323C89.0664 26.1879 89.6917 26.0156 90.3498 26.0156C90.7286 26.0156 91.0577 26.0657 91.3369 26.1657V27.8323C91.2364 27.7434 91.0354 27.6601 90.734 27.5823C90.444 27.4934 90.1212 27.449 89.7637 27.449C89.2399 27.449 88.8548 27.5879 88.6094 27.8657C88.3752 28.1323 88.258 28.599 88.258 29.2657V30.5824H90.5668V31.6657H88.258V38.8657L90.115 38.999V39.8156H85.0959V38.999L86.518 38.849V31.6657Z" fill="#A4ABBD"/>
<path d="M92.5469 35.1664C92.5469 34.1664 92.7532 33.2998 93.1659 32.5665C93.5785 31.8331 94.1192 31.2776 94.788 30.8998C95.4693 30.5109 96.1941 30.3164 96.9634 30.3164C98.3685 30.3164 99.4233 30.7609 100.126 31.6497C100.84 32.5386 101.197 33.7053 101.197 35.1497C101.197 36.1609 100.99 37.0331 100.578 37.7664C100.165 38.4998 99.6181 39.0553 98.9377 39.4331C98.2689 39.8109 97.5494 39.9998 96.7793 39.9998C95.3741 39.9998 94.314 39.5553 93.6008 38.6664C92.8982 37.7776 92.5469 36.6109 92.5469 35.1664ZM96.8798 39.0498C97.649 39.0498 98.2405 38.7331 98.6531 38.0998C99.0658 37.4664 99.2721 36.5275 99.2721 35.2831C99.2721 34.0497 99.0827 33.072 98.7038 32.3498C98.3241 31.6276 97.7166 31.2664 96.8798 31.2664C96.1105 31.2664 95.5137 31.5831 95.0895 32.2164C94.6769 32.8497 94.4705 33.7887 94.4705 35.0331C94.4705 36.2664 94.6662 37.2442 95.0557 37.9665C95.4461 38.6887 96.0545 39.0498 96.8798 39.0498Z" fill="#A4ABBD"/>
<path d="M103.43 38.9998L104.685 38.8998V31.8497L103.48 31.5497V30.6497L105.789 30.3497H105.823L106.191 30.6497V30.9498L106.14 32.2497H106.191C106.302 32.0609 106.503 31.8164 106.793 31.5164C107.083 31.2164 107.457 30.9442 107.914 30.6998C108.372 30.4442 108.868 30.3164 109.403 30.3164C109.627 30.3164 109.811 30.3442 109.956 30.3998V32.2664C109.877 32.2109 109.749 32.1608 109.571 32.1164C109.403 32.0608 109.214 32.0331 109.001 32.0331C108.076 32.0331 107.217 32.3164 106.425 32.8831V38.8831L108.55 39.0164V39.8164H103.43V38.9998Z" fill="#A4ABBD"/>
<path d="M120.468 27.332H122.308L126.374 38.832L127.411 38.9987V39.8153H122.994V38.9987L124.383 38.832L123.596 36.3654H118.711L117.924 38.832L119.363 38.9987V39.8153H115.398V38.9987L116.435 38.832L120.468 27.332ZM121.522 29.9987L121.104 28.532L120.702 30.032L119.012 35.382H123.279L121.522 29.9987Z" fill="#A4ABBD"/>
<path d="M132.234 40.0013C131.565 40.0013 130.951 39.8346 130.393 39.5013C129.836 39.168 129.39 38.6569 129.055 37.968C128.732 37.2791 128.57 36.429 128.57 35.418C128.57 34.4736 128.765 33.6124 129.156 32.8346C129.546 32.0569 130.104 31.4457 130.828 31.0013C131.565 30.5457 132.429 30.3179 133.423 30.3179C133.991 30.3179 134.509 30.3791 134.978 30.5013V27.3846L133.271 27.1846V26.468L136.284 26.168H136.333L136.702 26.4346V38.968H137.672V39.7346C137.315 39.8124 137.002 39.8735 136.734 39.9179C136.478 39.9624 136.205 39.9847 135.915 39.9847C135.625 39.9847 135.419 39.9346 135.296 39.8346C135.174 39.7346 135.112 39.5235 135.112 39.2013V38.668C134.799 39.0457 134.387 39.3624 133.873 39.6179C133.372 39.8735 132.826 40.0013 132.234 40.0013ZM132.903 38.8179C133.338 38.8179 133.745 38.7235 134.125 38.5346C134.504 38.3346 134.789 38.1068 134.978 37.8513V31.7513C134.889 31.6179 134.677 31.5013 134.342 31.4013C134.019 31.2902 133.673 31.2346 133.305 31.2346C132.435 31.2346 131.738 31.568 131.213 32.2346C130.7 32.8902 130.444 33.9068 130.444 35.2846C130.444 36.4846 130.673 37.3735 131.13 37.9513C131.587 38.529 132.178 38.8179 132.903 38.8179Z" fill="#A4ABBD"/>
<path d="M143.297 40.0013C142.627 40.0013 142.014 39.8346 141.457 39.5013C140.898 39.168 140.453 38.6569 140.118 37.968C139.795 37.2791 139.633 36.429 139.633 35.418C139.633 34.4736 139.828 33.6124 140.218 32.8346C140.608 32.0569 141.166 31.4457 141.892 31.0013C142.627 30.5457 143.492 30.3179 144.485 30.3179C145.053 30.3179 145.573 30.3791 146.041 30.5013V27.3846L144.334 27.1846V26.468L147.346 26.168H147.396L147.764 26.4346V38.968H148.734V39.7346C148.378 39.8124 148.066 39.8735 147.798 39.9179C147.541 39.9624 147.268 39.9847 146.978 39.9847C146.688 39.9847 146.482 39.9346 146.359 39.8346C146.236 39.7346 146.175 39.5235 146.175 39.2013V38.668C145.863 39.0457 145.45 39.3624 144.937 39.6179C144.434 39.8735 143.888 40.0013 143.297 40.0013ZM143.966 38.8179C144.401 38.8179 144.808 38.7235 145.188 38.5346C145.567 38.3346 145.851 38.1068 146.041 37.8513V31.7513C145.952 31.6179 145.74 31.5013 145.405 31.4013C145.082 31.2902 144.736 31.2346 144.368 31.2346C143.498 31.2346 142.801 31.568 142.276 32.2346C141.763 32.8902 141.507 33.9068 141.507 35.2846C141.507 36.4846 141.735 37.3735 142.192 37.9513C142.65 38.529 143.241 38.8179 143.966 38.8179Z" fill="#A4ABBD"/>
<path d="M152.712 28.9016C152.355 28.9016 152.087 28.8016 151.909 28.6016C151.731 28.4016 151.641 28.146 151.641 27.8349C151.641 27.4793 151.748 27.1849 151.959 26.9515C152.182 26.7182 152.483 26.6016 152.863 26.6016C153.242 26.6016 153.521 26.7016 153.699 26.9016C153.878 27.1016 153.967 27.3571 153.967 27.6682C153.967 28.046 153.855 28.346 153.632 28.5682C153.42 28.7905 153.119 28.9016 152.729 28.9016H152.712ZM152.043 31.8515L150.771 31.5515V30.6682L153.364 30.3515H153.398L153.782 30.6515V38.8682L155.122 39.0016V39.8182H150.688V39.0016L152.043 38.8515V31.8515Z" fill="#A4ABBD"/>
<path d="M156.781 35.2497C156.781 34.3275 156.96 33.4942 157.317 32.7497C157.685 32.0053 158.22 31.4164 158.923 30.9831C159.637 30.5386 160.49 30.3164 161.483 30.3164C161.963 30.3164 162.375 30.3608 162.721 30.4497C163.067 30.5386 163.48 30.6609 163.959 30.8164L163.892 33.3831H162.805L162.437 31.6831C162.37 31.372 161.946 31.2164 161.165 31.2164C160.384 31.2164 159.765 31.5331 159.308 32.1664C158.861 32.7887 158.638 33.6776 158.638 34.8331C158.638 36.1442 158.89 37.1442 159.391 37.8331C159.905 38.5109 160.568 38.8497 161.383 38.8497C161.851 38.8497 162.292 38.7776 162.704 38.6331C163.129 38.4887 163.49 38.3164 163.792 38.1164L164.109 38.7831C163.809 39.0942 163.362 39.3776 162.771 39.6331C162.191 39.8776 161.6 39.9998 160.998 39.9998C160.083 39.9998 159.308 39.7942 158.672 39.3831C158.048 38.972 157.574 38.4109 157.25 37.6998C156.938 36.9776 156.781 36.1608 156.781 35.2497Z" fill="#A4ABBD"/>
<path d="M169.088 39.9847C168.452 39.9847 167.978 39.8401 167.666 39.5513C167.354 39.2624 167.197 38.768 167.197 38.068V31.668H165.992V30.9179C166.048 30.9068 166.205 30.868 166.461 30.8013C166.718 30.7346 166.89 30.6735 166.979 30.6179C167.158 30.5179 167.298 30.3179 167.398 30.0179C167.487 29.8068 167.593 29.468 167.716 29.0013C167.838 28.5346 167.911 28.2569 167.934 28.168H168.921L168.954 30.568H171.748V31.668H168.954V36.7846C168.954 37.4179 168.971 37.8624 169.004 38.1179C169.049 38.3735 169.132 38.5401 169.255 38.6179C169.389 38.6957 169.612 38.7346 169.924 38.7346C170.225 38.7346 170.555 38.6957 170.911 38.6179C171.279 38.5401 171.564 38.4569 171.765 38.368L172.016 39.1179C171.748 39.3179 171.313 39.5124 170.711 39.7013C170.12 39.8902 169.579 39.9847 169.088 39.9847Z" fill="#A4ABBD"/>
<path d="M175.688 28.9016C175.332 28.9016 175.064 28.8016 174.885 28.6016C174.707 28.4016 174.617 28.146 174.617 27.8349C174.617 27.4793 174.724 27.1849 174.936 26.9515C175.159 26.7182 175.46 26.6016 175.839 26.6016C176.218 26.6016 176.498 26.7016 176.675 26.9016C176.854 27.1016 176.943 27.3571 176.943 27.6682C176.943 28.046 176.832 28.346 176.609 28.5682C176.397 28.7905 176.096 28.9016 175.705 28.9016H175.688ZM175.019 31.8515L173.748 31.5515V30.6682L176.341 30.3515H176.375L176.759 30.6515V38.8682L178.097 39.0016V39.8182H173.664V39.0016L175.019 38.8515V31.8515Z" fill="#A4ABBD"/>
<path d="M179.953 35.1664C179.953 34.1664 180.159 33.2998 180.572 32.5665C180.985 31.8331 181.525 31.2776 182.195 30.8998C182.876 30.5109 183.6 30.3164 184.37 30.3164C185.776 30.3164 186.83 30.7609 187.532 31.6497C188.246 32.5386 188.603 33.7053 188.603 35.1497C188.603 36.1609 188.397 37.0331 187.984 37.7664C187.571 38.4998 187.025 39.0553 186.344 39.4331C185.675 39.8109 184.956 39.9998 184.186 39.9998C182.78 39.9998 181.721 39.5553 181.007 38.6664C180.304 37.7776 179.953 36.6109 179.953 35.1664ZM184.286 39.0498C185.056 39.0498 185.648 38.7331 186.06 38.0998C186.473 37.4664 186.679 36.5275 186.679 35.2831C186.679 34.0497 186.49 33.072 186.11 32.3498C185.731 31.6276 185.123 31.2664 184.286 31.2664C183.517 31.2664 182.92 31.5831 182.496 32.2164C182.083 32.8497 181.877 33.7887 181.877 35.0331C181.877 36.2664 182.072 37.2442 182.463 37.9665C182.853 38.6887 183.461 39.0498 184.286 39.0498Z" fill="#A4ABBD"/>
<path d="M191.807 31.8516L190.602 31.5516V30.6516L192.995 30.3516H193.045L193.396 30.6516V31.3516L193.379 31.7516C193.781 31.396 194.311 31.0738 194.969 30.7849C195.627 30.496 196.257 30.3516 196.86 30.3516C197.562 30.3516 198.103 30.4849 198.482 30.7516C198.872 31.0182 199.146 31.4293 199.302 31.9849C199.459 32.5293 199.537 33.2683 199.537 34.2016V38.8683L200.708 38.9849V39.8182H196.742V39.0016L197.779 38.8683V34.1849C197.779 33.5293 197.735 33.0182 197.646 32.6516C197.556 32.2738 197.389 31.996 197.144 31.8182C196.898 31.6293 196.541 31.5349 196.073 31.5349C195.672 31.5349 195.242 31.6349 194.785 31.8349C194.327 32.0349 193.921 32.2683 193.563 32.5349V38.8516L194.701 39.0016V39.8182H190.753V39.0016L191.807 38.8516V31.8516Z" fill="#A4ABBD"/>
<path d="M204.138 38.4838C204.25 38.6505 204.484 38.8005 204.842 38.9339C205.209 39.0672 205.594 39.1339 205.996 39.1339C206.632 39.1339 207.1 39.0116 207.401 38.7672C207.703 38.5227 207.853 38.1838 207.853 37.7505C207.853 37.4505 207.758 37.1894 207.568 36.9672C207.379 36.745 207.111 36.5505 206.765 36.3838C206.431 36.206 205.945 35.9949 205.31 35.7505C204.451 35.4283 203.821 35.045 203.419 34.6005C203.028 34.145 202.834 33.5505 202.834 32.8171C202.834 32.3283 202.979 31.9005 203.268 31.5339C203.57 31.1672 203.977 30.8838 204.49 30.6838C205.014 30.4727 205.594 30.3672 206.23 30.3672C206.743 30.3672 207.19 30.406 207.568 30.4838C207.959 30.5616 208.271 30.6394 208.506 30.7171C208.74 30.7949 208.896 30.845 208.974 30.8672V32.9339H207.954L207.618 31.7005C207.552 31.5672 207.374 31.4561 207.083 31.3672C206.793 31.2672 206.47 31.2171 206.113 31.2171C205.611 31.2171 205.204 31.3283 204.892 31.5505C204.59 31.7727 204.44 32.0727 204.44 32.4505C204.44 32.7838 204.518 33.0616 204.674 33.2838C204.842 33.4949 205.048 33.6672 205.293 33.8005C205.538 33.9339 205.873 34.0894 206.297 34.2672L206.632 34.4005C207.256 34.645 207.764 34.8783 208.155 35.1005C208.544 35.3227 208.868 35.6171 209.125 35.9838C209.393 36.3394 209.526 36.7783 209.526 37.3005C209.526 38.1227 209.202 38.7783 208.556 39.2672C207.92 39.7561 207.045 40.0005 205.929 40.0005C205.382 40.0005 204.808 39.9283 204.206 39.7839C203.614 39.6283 203.129 39.4727 202.75 39.3171V37.1838H203.838L204.138 38.4838Z" fill="#A4ABBD"/>
</g>
<defs>
<clipPath id="clip0_3926_15167">
<rect width="217" height="40" fill="white"/>
</clipPath>
</defs>
</svg>
