<svg width="150" height="83" viewBox="0 0 150 83" fill="none" xmlns="http://www.w3.org/2000/svg">
<g filter="url(#filter0_d_3926_15199)">
<rect x="23.7654" y="17.9972" width="40.6765" height="40" rx="3" fill="#A4ABBD"/>
</g>
<mask id="mask0_3926_15199" style="mask-type:alpha" maskUnits="userSpaceOnUse" x="32" y="26" width="33" height="32">
<path d="M64.416 57.9919H41.9347L34.0645 48.556L34.3902 37.1224L32.031 33.9221L44.0048 26.5324L55.7134 30.882L64.416 40.1561V57.9919Z" fill="#42008F"/>
<path d="M64.416 57.9919H41.9347L34.0645 48.556L34.3902 37.1224L32.031 33.9221L44.0048 26.5324L55.7134 30.882L64.416 40.1561V57.9919Z" fill="url(#paint0_linear_3926_15199)"/>
</mask>
<g mask="url(#mask0_3926_15199)">
<rect x="24.6169" y="16.9972" width="43.3055" height="45.1384" rx="9.06415" fill="#545567"/>
</g>
<path d="M36.4097 42.8145V47.7287H34.093V35.152H37.891C38.7408 35.152 39.4671 35.2419 40.0699 35.4216C40.6785 35.5956 41.1752 35.842 41.5599 36.1609C41.9503 36.4798 42.2345 36.8625 42.4125 37.309C42.5962 37.7497 42.6881 38.2367 42.6881 38.7702C42.6881 39.1935 42.6249 39.5936 42.4986 39.9705C42.378 40.3473 42.2001 40.6894 41.9647 40.9968C41.735 41.3041 41.4479 41.5737 41.1034 41.8056C40.7647 42.0376 40.3771 42.2231 39.9408 42.3623C40.2336 42.5304 40.4862 42.7711 40.6986 43.0842L43.8163 47.7287H41.7321C41.5312 47.7287 41.3589 47.6881 41.2154 47.6069C41.0776 47.5257 40.9599 47.4097 40.8623 47.259L38.2441 43.232C38.1465 43.0813 38.0374 42.974 37.9169 42.9102C37.802 42.8464 37.6298 42.8145 37.4001 42.8145H36.4097ZM36.4097 41.1359H37.8566C38.2929 41.1359 38.6719 41.0808 38.9934 40.9707C39.3207 40.8605 39.5877 40.7097 39.7944 40.5184C40.0068 40.3213 40.1647 40.0893 40.268 39.8226C40.3714 39.5559 40.423 39.2631 40.423 38.9441C40.423 38.3063 40.2135 37.8164 39.7944 37.4743C39.381 37.1322 38.7465 36.9611 37.891 36.9611H36.4097V41.1359Z" fill="white"/>
<path d="M45.6354 47.7287V35.152H49.9329C50.7482 35.152 51.4429 35.2303 52.0171 35.3868C52.597 35.5434 53.0707 35.7666 53.4381 36.0566C53.8113 36.3465 54.0841 36.6973 54.2563 37.109C54.4285 37.5206 54.5147 37.9845 54.5147 38.5006C54.5147 38.7963 54.4716 39.0804 54.3855 39.3529C54.2994 39.6196 54.1644 39.8719 53.9807 40.1096C53.8027 40.3415 53.5731 40.5532 53.2917 40.7445C53.0161 40.9359 52.686 41.0982 52.3013 41.2316C54.0123 41.6201 54.8678 42.5536 54.8678 44.0322C54.8678 44.5657 54.7673 45.0585 54.5663 45.5108C54.3654 45.9631 54.0726 46.3544 53.6879 46.685C53.3032 47.0097 52.8295 47.2648 52.2669 47.4503C51.7042 47.6359 51.0611 47.7287 50.3377 47.7287H45.6354ZM47.9521 42.2144V45.9022H50.3033C50.7339 45.9022 51.0927 45.85 51.3798 45.7456C51.6726 45.6412 51.9051 45.5021 52.0774 45.3281C52.2554 45.1542 52.3817 44.9512 52.4563 44.7193C52.5367 44.4874 52.5769 44.2409 52.5769 43.98C52.5769 43.7075 52.5338 43.464 52.4477 43.2494C52.3616 43.0291 52.2267 42.8435 52.0429 42.6928C51.8592 42.5362 51.6238 42.4174 51.3367 42.3362C51.0496 42.255 50.7023 42.2144 50.2946 42.2144H47.9521ZM47.9521 40.5967H49.8037C50.5903 40.5967 51.1874 40.4517 51.5951 40.1618C52.0027 39.8719 52.2066 39.4109 52.2066 38.7789C52.2066 38.1237 52.0228 37.6569 51.6554 37.3786C51.2879 37.1003 50.7138 36.9611 49.9329 36.9611H47.9521V40.5967Z" fill="white"/>
<path d="M44.1399 27.6421L32.0232 33.6868V30.9347L44.1399 24.841L56.1593 30.7429V33.4902L44.1399 27.6421Z" fill="white"/>
<path d="M72.1286 38.8639H73.0925C74.0372 38.8639 74.7344 38.7063 75.1843 38.3909C75.6341 38.0756 75.859 37.58 75.859 36.9043C75.859 36.235 75.6277 35.7587 75.165 35.4755C74.7087 35.1924 73.9986 35.0508 73.0347 35.0508H72.1286V38.8639ZM72.1286 41.2966V46.7123H69.1404V32.5988H73.2468C75.1618 32.5988 76.5788 32.9495 77.4977 33.651C78.4167 34.3461 78.8762 35.4047 78.8762 36.827C78.8762 37.6572 78.648 38.3973 78.1918 39.0474C77.7355 39.6909 77.0897 40.1961 76.2542 40.563C78.3749 43.7358 79.7566 45.7855 80.3992 46.7123H77.0832L73.7191 41.2966H72.1286Z" fill="#A4ABBD"/>
<path d="M85.0226 37.8117C84.3993 37.8117 83.9109 38.0112 83.5574 38.4102C83.204 38.8028 83.0016 39.3627 82.9502 40.0899H87.0758C87.063 39.3627 86.8734 38.8028 86.5071 38.4102C86.1408 38.0112 85.646 37.8117 85.0226 37.8117ZM85.4371 46.9053C83.702 46.9053 82.3461 46.4259 81.3693 45.467C80.3925 44.508 79.9041 43.1501 79.9041 41.3932C79.9041 39.5847 80.3539 38.1882 81.2536 37.2035C82.1597 36.2124 83.4096 35.7169 85.0033 35.7169C86.5264 35.7169 87.712 36.1513 88.5603 37.0201C89.4085 37.8889 89.8327 39.0892 89.8327 40.6209V42.0496H82.8827C82.9148 42.8863 83.1622 43.5395 83.6249 44.0093C84.0876 44.4791 84.7366 44.714 85.5721 44.714C86.2211 44.714 86.8348 44.6464 87.4132 44.5113C87.9915 44.3761 88.5956 44.1605 89.2254 43.8645V46.1427C88.7113 46.4001 88.1618 46.59 87.5771 46.7123C86.9923 46.841 86.279 46.9053 85.4371 46.9053Z" fill="#A4ABBD"/>
<path d="M100.789 46.7123H97.8492V40.4085C97.8492 39.6298 97.711 39.0474 97.4347 38.6612C97.1583 38.2686 96.7181 38.0723 96.1141 38.0723C95.2915 38.0723 94.6971 38.3491 94.3308 38.9026C93.9645 39.4496 93.7813 40.3602 93.7813 41.6345V46.7123H90.8413V35.9196H93.0873L93.4825 37.3001H93.6464C93.9741 36.7788 94.424 36.3862 94.9959 36.1223C95.5743 35.852 96.2298 35.7169 96.9623 35.7169C98.2155 35.7169 99.1666 36.058 99.8156 36.7402C100.465 37.4159 100.789 38.3941 100.789 39.6748V46.7123Z" fill="#A4ABBD"/>
<path d="M106.974 44.5595C107.488 44.5595 108.105 44.4469 108.825 44.2217V46.413C108.092 46.7412 107.193 46.9053 106.126 46.9053C104.95 46.9053 104.092 46.6093 103.552 46.0172C103.019 45.4187 102.752 44.5241 102.752 43.3335V38.1303H101.345V36.885L102.964 35.9003L103.812 33.6221H105.692V35.9196H108.709V38.1303H105.692V43.3335C105.692 43.7519 105.808 44.0608 106.039 44.2603C106.277 44.4598 106.589 44.5595 106.974 44.5595Z" fill="#A4ABBD"/>
<path d="M109.863 32.5988H114.248C116.247 32.5988 117.696 32.8852 118.596 33.4579C119.502 34.0243 119.955 34.9285 119.955 36.1706C119.955 37.0137 119.756 37.7055 119.357 38.2461C118.965 38.7867 118.442 39.1117 117.786 39.2211V39.3177C118.679 39.5172 119.322 39.8904 119.714 40.4375C120.112 40.9845 120.312 41.7117 120.312 42.6192C120.312 43.9063 119.846 44.9103 118.914 45.6311C117.989 46.3519 116.729 46.7123 115.135 46.7123H109.863V32.5988ZM112.851 38.1882H114.586C115.396 38.1882 115.98 38.0627 116.34 37.8117C116.707 37.5607 116.89 37.1456 116.89 36.5664C116.89 36.0258 116.69 35.6396 116.292 35.408C115.9 35.1698 115.277 35.0508 114.422 35.0508H112.851V38.1882ZM112.851 40.563V44.241H114.798C115.62 44.241 116.228 44.0833 116.62 43.7679C117.012 43.4526 117.208 42.9699 117.208 42.3199C117.208 41.1486 116.372 40.563 114.702 40.563H112.851Z" fill="#A4ABBD"/>
<path d="M128.357 46.7123L127.788 45.2449H127.711C127.216 45.8692 126.706 46.3036 126.179 46.5482C125.658 46.7863 124.977 46.9053 124.135 46.9053C123.1 46.9053 122.284 46.6093 121.687 46.0172C121.095 45.4251 120.8 44.5821 120.8 43.488C120.8 42.3424 121.198 41.4994 121.995 40.9588C122.798 40.4117 124.006 40.1092 125.619 40.0513L127.49 39.9934V39.5204C127.49 38.4263 126.93 37.8793 125.812 37.8793C124.951 37.8793 123.939 38.1399 122.776 38.6612L121.802 36.6726C123.043 36.0226 124.418 35.6976 125.928 35.6976C127.374 35.6976 128.482 36.0129 129.254 36.6436C130.025 37.2743 130.41 38.2332 130.41 39.5204V46.7123H128.357ZM127.49 41.7117L126.352 41.7504C125.497 41.7761 124.861 41.9305 124.443 42.2137C124.026 42.4969 123.817 42.9281 123.817 43.5073C123.817 44.3375 124.292 44.7526 125.244 44.7526C125.925 44.7526 126.468 44.5563 126.873 44.1637C127.284 43.7712 127.49 43.2499 127.49 42.5999V41.7117Z" fill="#A4ABBD"/>
<path d="M139.583 43.5073C139.583 44.6142 139.198 45.4573 138.427 46.0365C137.662 46.6157 136.515 46.9053 134.985 46.9053C134.201 46.9053 133.533 46.8506 132.98 46.7412C132.428 46.6383 131.911 46.4838 131.429 46.2779V43.8452C131.975 44.1026 132.588 44.3182 133.27 44.492C133.957 44.6657 134.561 44.7526 135.082 44.7526C136.149 44.7526 136.682 44.4437 136.682 43.8259C136.682 43.5942 136.611 43.4075 136.47 43.266C136.329 43.1179 136.084 42.9538 135.737 42.7736C135.39 42.587 134.928 42.3714 134.349 42.1268C133.52 41.7793 132.91 41.4575 132.518 41.1615C132.132 40.8654 131.849 40.5276 131.67 40.1479C131.496 39.7617 131.409 39.2887 131.409 38.7288C131.409 37.7699 131.779 37.0298 132.518 36.5085C133.263 35.9807 134.317 35.7169 135.68 35.7169C136.978 35.7169 138.24 36 139.468 36.5664L138.581 38.6902C138.041 38.4585 137.537 38.2686 137.068 38.1206C136.598 37.9726 136.12 37.8986 135.631 37.8986C134.764 37.8986 134.33 38.1335 134.33 38.6033C134.33 38.8672 134.468 39.0956 134.744 39.2887C135.027 39.4818 135.641 39.7682 136.586 40.1479C137.427 40.489 138.044 40.8075 138.436 41.1036C138.828 41.3996 139.118 41.7407 139.304 42.1268C139.49 42.513 139.583 42.9731 139.583 43.5073Z" fill="#A4ABBD"/>
<path d="M144.959 37.8117C144.335 37.8117 143.847 38.0112 143.494 38.4102C143.14 38.8028 142.938 39.3627 142.886 40.0899H147.012C146.999 39.3627 146.81 38.8028 146.443 38.4102C146.077 38.0112 145.582 37.8117 144.959 37.8117ZM145.373 46.9053C143.638 46.9053 142.282 46.4259 141.305 45.467C140.329 44.508 139.84 43.1501 139.84 41.3932C139.84 39.5847 140.29 38.1882 141.19 37.2035C142.096 36.2124 143.346 35.7169 144.939 35.7169C146.463 35.7169 147.648 36.1513 148.496 37.0201C149.345 37.8889 149.769 39.0892 149.769 40.6209V42.0496H142.819C142.851 42.8863 143.098 43.5395 143.561 44.0093C144.024 44.4791 144.673 44.714 145.508 44.714C146.157 44.714 146.771 44.6464 147.349 44.5113C147.928 44.3761 148.532 44.1605 149.162 43.8645V46.1427C148.647 46.4001 148.098 46.59 147.513 46.7123C146.928 46.841 146.215 46.9053 145.373 46.9053Z" fill="#A4ABBD"/>
<defs>
<filter id="filter0_d_3926_15199" x="7.15256e-05" y="1.90735e-06" width="83.2631" height="82.5865" filterUnits="userSpaceOnUse" color-interpolation-filters="sRGB">
<feFlood flood-opacity="0" result="BackgroundImageFix"/>
<feColorMatrix in="SourceAlpha" type="matrix" values="0 0 0 0 0 0 0 0 0 0 0 0 0 0 0 0 0 0 127 0" result="hardAlpha"/>
<feOffset dx="-2.47204" dy="3.29605"/>
<feGaussianBlur stdDeviation="10.6466"/>
<feColorMatrix type="matrix" values="0 0 0 0 0 0 0 0 0 0 0 0 0 0 0 0 0 0 0.14 0"/>
<feBlend mode="normal" in2="BackgroundImageFix" result="effect1_dropShadow_3926_15199"/>
<feBlend mode="normal" in="SourceGraphic" in2="effect1_dropShadow_3926_15199" result="shape"/>
</filter>
<linearGradient id="paint0_linear_3926_15199" x1="37.3687" y1="33.9418" x2="62.1934" y2="56.2875" gradientUnits="userSpaceOnUse">
<stop stop-color="#3D0085"/>
<stop offset="1" stop-color="#5806B9"/>
</linearGradient>
</defs>
</svg>
