<svg width="155" height="40" viewBox="0 0 155 40" fill="none" xmlns="http://www.w3.org/2000/svg">
<g clip-path="url(#clip0_3926_15208)">
<path d="M32.5966 12.223C32.5939 14.9465 31.6602 17.5913 29.9431 19.7396C28.226 21.8879 25.8235 23.4171 23.1153 24.0852L0 0H20.0503C23.3759 0.0011358 26.5651 1.28898 28.9175 3.58073C31.2699 5.87248 32.5931 8.98089 32.5966 12.223Z" fill="#A4ABBD"/>
<g style="mix-blend-mode:soft-light" opacity="0.98">
<path d="M31.7423 16.6622C31.0132 18.479 29.8503 20.1001 28.3499 21.3911C26.8496 22.682 25.055 23.6057 23.1153 24.0852L0 0L31.7423 16.6622Z" fill="#A4ABBD"/>
</g>
<path d="M32.0594 33.4146L23.1109 24.0852L0 0V36.8533H29.4083C31.9537 36.8404 33.4686 34.8786 32.0594 33.4146Z" fill="#A4ABBD"/>
<path style="mix-blend-mode:soft-light" opacity="0.83" d="M0 24.4531V36.8434L21.4419 24.4531H0Z" fill="url(#paint0_linear_3926_15208)"/>
<path d="M0 0V24.4716H20.0503C21.0897 24.4755 22.1254 24.3515 23.1329 24.1025L0 0Z" fill="#A4ABBD"/>
<path d="M63.5743 31.4963C63.2254 31.497 62.8829 31.4044 62.584 31.2288C62.2852 31.0532 62.0413 30.8012 61.8789 30.5001L56.5019 20.5656H52.7763V29.6201C52.7763 30.1154 52.5745 30.5903 52.2152 30.9406C51.8559 31.2908 51.3687 31.4877 50.8607 31.4877H50.7594C50.2513 31.4877 49.7641 31.2908 49.4049 30.9406C49.0455 30.5903 48.8438 30.1154 48.8438 29.6201V6.49219H58.7257C59.6966 6.49214 60.6578 6.67961 61.5538 7.04373C62.4498 7.40785 63.263 7.94145 63.9464 8.61366C64.6298 9.28589 65.1698 10.0835 65.5352 10.9603C65.9007 11.8371 66.0844 12.7758 66.0756 13.7222C66.0796 15.2879 65.521 16.8055 64.497 18.0117C63.473 19.2178 62.0481 20.0363 60.4697 20.3252L65.2478 28.7142C65.4116 28.9987 65.4961 29.3198 65.493 29.6461C65.4899 29.9723 65.3992 30.2921 65.23 30.5734C65.0607 30.8549 64.8188 31.088 64.5283 31.25C64.2379 31.4118 63.9089 31.4968 63.5743 31.4963ZM58.6245 17.4314C59.6535 17.4314 60.6403 17.0331 61.3678 16.3238C62.0954 15.6144 62.5042 14.6522 62.5042 13.649C62.5042 12.6459 62.0954 11.6838 61.3678 10.9745C60.6403 10.2652 59.6535 9.86686 58.6245 9.86686H52.7763V17.4314H58.6245Z" fill="#A4ABBD"/>
<path d="M83.647 16.6022V29.7352C83.647 29.9673 83.6 30.1971 83.5087 30.4114C83.4175 30.6258 83.2838 30.8207 83.1152 30.9846C82.9467 31.1485 82.7467 31.2784 82.5266 31.3667C82.3065 31.4552 82.0707 31.5004 81.8326 31.4999C81.3838 31.5 80.951 31.3375 80.6182 31.044C80.2853 30.7504 80.0762 30.3466 80.0314 29.9113L79.9874 29.4819C79.3333 30.2219 78.5217 30.8142 77.6092 31.2175C76.6966 31.6209 75.7048 31.8256 74.7029 31.8175C73.8041 31.8256 72.9127 31.6585 72.0812 31.3259C71.2497 30.9932 70.4948 30.5019 69.8608 29.8807C69.2269 29.2594 68.7268 28.5209 68.3899 27.7085C68.053 26.8961 67.8862 26.0263 67.8991 25.1501V16.5849C67.8991 16.1169 68.0898 15.6681 68.4292 15.3372C68.7686 15.0063 69.229 14.8205 69.7091 14.8205H69.8808C70.3613 14.8205 70.822 15.0062 71.1622 15.337C71.5023 15.6678 71.694 16.1166 71.6952 16.5849V24.7164C71.6939 25.2257 71.7969 25.73 71.9983 26.2C72.1996 26.6699 72.4952 27.0961 72.8676 27.4531C73.24 27.8102 73.6818 28.0911 74.1672 28.2795C74.6525 28.468 75.1715 28.5601 75.6937 28.5504C76.7627 28.5735 77.7975 28.1833 78.5723 27.4649C79.3472 26.7465 79.7989 25.7584 79.8289 24.7164V16.5849C79.8289 16.3529 79.8758 16.1231 79.9671 15.9087C80.0583 15.6944 80.192 15.4997 80.3605 15.3358C80.5291 15.1719 80.7291 15.042 80.9492 14.9536C81.1693 14.8652 81.4052 14.82 81.6432 14.8205H81.8106C82.0519 14.817 82.2916 14.8608 82.5155 14.949C82.7392 15.0372 82.9427 15.1681 83.1138 15.3341C83.2849 15.5001 83.4202 15.6978 83.5118 15.9156C83.6034 16.1334 83.6493 16.3668 83.647 16.6022Z" fill="#A4ABBD"/>
<path d="M95.449 14.4962C94.4943 14.4912 93.5498 14.6754 92.6699 15.0373C91.842 15.3868 91.0939 15.8931 90.4683 16.5269C90.4626 16.0752 90.2744 15.644 89.9447 15.3266C89.615 15.0091 89.1703 14.8311 88.7069 14.8312H88.4647C88.0013 14.8311 87.5565 15.0091 87.2268 15.3266C86.8971 15.644 86.709 16.0752 86.7031 16.5269V38.1308C86.709 38.5825 86.8971 39.0137 87.2268 39.3311C87.5565 39.6486 88.0013 39.8265 88.4647 39.8265H88.7069C89.1741 39.8265 89.6221 39.6456 89.9524 39.3236C90.2828 39.0015 90.4683 38.5646 90.4683 38.1092V21.2109C91.151 19.1759 92.824 17.7463 94.8454 17.7463C97.8186 17.7463 99.5929 20.1462 99.5929 23.1429C99.5929 26.1396 97.8314 28.5438 94.8454 28.5438C94.55 28.546 94.2545 28.5157 93.9646 28.4537C93.7531 28.4139 93.5352 28.4168 93.3245 28.4622C93.1139 28.5074 92.9152 28.5941 92.7401 28.7173C92.565 28.8403 92.4183 28.997 92.3079 29.1776C92.1967 29.3581 92.1256 29.5589 92.0973 29.7675C92.0444 30.1225 92.1192 30.4845 92.3097 30.7916C92.5003 31.0986 92.7939 31.3317 93.1413 31.4504C93.8807 31.6936 94.6557 31.8154 95.4362 31.8109C100.28 31.8109 103.266 28.0115 103.266 23.1429C103.266 18.2743 100.302 14.4962 95.449 14.4962Z" fill="#A4ABBD"/>
<path d="M120.374 24.3286H109.254C109.562 26.9948 111.068 28.6219 113.869 28.6219C114.541 28.67 115.215 28.5548 115.829 28.2865C116.444 28.0182 116.981 27.6054 117.392 27.0848C117.659 26.7808 118.033 26.5853 118.441 26.5369C118.848 26.4884 119.26 26.5905 119.594 26.823C119.782 26.9522 119.94 27.1179 120.058 27.3098C120.176 27.5017 120.252 27.7154 120.281 27.9374C120.31 28.1595 120.292 28.385 120.226 28.5997C120.161 28.8143 120.051 29.0134 119.902 29.1843C119.167 30.0347 118.245 30.7131 117.204 31.1694C116.164 31.6256 115.032 31.8479 113.891 31.8202C111.813 31.8296 109.807 31.0753 108.274 29.7076C106.74 28.3398 105.792 26.4592 105.617 24.4401C105.066 18.8203 108.211 14.4883 113.759 14.4883C118.718 14.4883 121.452 18.1204 121.452 23.2894C121.455 23.4277 121.429 23.565 121.375 23.693C121.322 23.821 121.242 23.937 121.141 24.0341C121.04 24.1312 120.92 24.2074 120.789 24.258C120.656 24.3085 120.515 24.3327 120.374 24.3286ZM109.364 21.495H118.013C117.669 19.095 116.252 17.6654 113.807 17.6654C111.258 17.6654 109.805 19.1294 109.36 21.495H109.364Z" fill="#A4ABBD"/>
<path d="M135.368 17.2329L135.328 17.2931C135.133 17.5702 134.854 17.7812 134.531 17.8965C134.207 18.012 133.855 18.0262 133.522 17.9371C133.045 17.8196 132.553 17.7619 132.061 17.7653C129.735 17.7653 127.547 19.6971 127.547 22.5651V29.7391C127.547 30.2048 127.357 30.6515 127.019 30.9808C126.681 31.31 126.223 31.4952 125.745 31.4952H125.552C125.074 31.4952 124.616 31.31 124.278 30.9808C123.941 30.6515 123.75 30.2048 123.75 29.7391V16.5847C123.752 16.1197 123.941 15.6741 124.28 15.3458C124.617 15.0174 125.075 14.833 125.552 14.833C126.003 14.8324 126.438 14.9972 126.771 15.2946C127.103 15.592 127.31 16.0001 127.349 16.4386L127.41 17.1644C128.643 15.5629 130.387 14.498 132.254 14.498C132.959 14.4836 133.662 14.55 134.35 14.6957C134.617 14.7576 134.865 14.8816 135.072 15.0573C135.28 15.2331 135.441 15.4553 135.54 15.7046C135.64 15.954 135.677 16.2234 135.647 16.4895C135.617 16.7557 135.521 17.0107 135.368 17.2329Z" fill="#A4ABBD"/>
<path d="M148.686 28.8664C148.484 28.632 148.209 28.4685 147.903 28.401C147.596 28.3335 147.276 28.3658 146.991 28.4928C146.666 28.6154 146.321 28.6737 145.973 28.6646C144.573 28.6646 143.772 27.8661 143.772 26.1659V17.6695H146.458C146.843 17.6695 147.213 17.5202 147.485 17.2544C147.758 16.9887 147.911 16.6284 147.911 16.2526C147.911 15.8769 147.758 15.5165 147.485 15.2508C147.213 14.9851 146.843 14.8359 146.458 14.8359H138.602C138.216 14.8359 137.847 14.9851 137.574 15.2508C137.302 15.5165 137.148 15.8769 137.148 16.2526C137.148 16.6284 137.302 16.9887 137.574 17.2544C137.847 17.5202 138.216 17.6695 138.602 17.6695H139.923V26.1873C139.923 29.5533 142.212 31.8545 145.872 31.8545C146.731 31.8756 147.586 31.7296 148.387 31.4252C148.595 31.3399 148.781 31.2084 148.928 31.0412C149.074 30.8739 149.18 30.6753 149.235 30.4615C149.289 30.2477 149.292 30.0244 149.243 29.8094C149.194 29.5942 149.093 29.3933 148.95 29.2226L148.686 28.8664Z" fill="#A4ABBD"/>
<path d="M153.129 31.8222C154.08 31.8222 154.85 31.0707 154.85 30.1436C154.85 29.2165 154.08 28.4648 153.129 28.4648C152.178 28.4648 151.406 29.2165 151.406 30.1436C151.406 31.0707 152.178 31.8222 153.129 31.8222Z" fill="#A4ABBD"/>
</g>
<defs>
<linearGradient id="paint0_linear_3926_15208" x1="148325" y1="94746.7" x2="148283" y2="95051" gradientUnits="userSpaceOnUse">
<stop stop-color="#454545"/>
<stop offset="1" stop-color="#454545" stop-opacity="0"/>
</linearGradient>
<clipPath id="clip0_3926_15208">
<rect width="155" height="40" fill="white"/>
</clipPath>
</defs>
</svg>
