<svg width="161" height="40" viewBox="0 0 161 40" fill="none" xmlns="http://www.w3.org/2000/svg">
<path d="M27.4256 26.4623L23.2714 14.4821L25.5724 13.0707C26.0409 12.7844 26.4313 12.3867 26.7087 11.9129C26.9861 11.4391 27.142 10.9041 27.1624 10.3555C27.1827 9.80685 27.067 9.26171 26.8255 8.76867C26.584 8.27562 26.2243 7.84999 25.7783 7.52972L16.4373 0.807097C15.7074 0.282316 14.831 0 13.932 0C13.0329 0 12.1565 0.282316 11.4266 0.807097L2.39599 7.27012C1.61833 7.82658 1.03574 8.61382 0.730918 9.52009C0.426101 10.4264 0.41455 11.4056 0.697905 12.3188L4.39252 24.2363L1.7842 25.6984C1.28231 25.9777 0.857526 26.3772 0.54789 26.8609C0.238255 27.3446 0.053429 27.8976 0.00996117 28.4703C-0.0335067 29.043 0.0657399 29.6175 0.298815 30.1424C0.531891 30.6673 0.891521 31.1263 1.34551 31.4781L11.158 39.0541C11.9523 39.6703 12.9298 40.0032 13.935 40C14.9403 39.9967 15.9156 39.6575 16.7059 39.0362L25.838 31.8929C26.6371 31.267 27.2207 30.4072 27.5075 29.4337C27.7943 28.4601 27.7698 27.4213 27.4376 26.4623" fill="#A4ABBD"/>
<path d="M45.1271 24.2431C46.1985 26.0334 48.1831 27.227 50.8153 27.227C53.3191 27.227 54.1965 26.0573 54.1965 24.9831C54.1965 23.0018 51.6598 22.5125 48.5084 21.3428C45.2554 20.1732 43.0142 18.4187 43.0142 14.7783C43.0142 10.7143 46.6551 8.375 50.8153 8.375C54.6501 8.375 56.9928 10.1952 58.3895 12.1466L55.0411 14.8112C54.2293 13.6743 52.8953 12.8597 50.9466 12.8597C49.0933 12.8597 47.9622 13.6415 47.9622 14.7127C47.9622 16.5985 49.7528 16.6641 53.4206 18.0934C57.5181 19.654 59.2072 21.5726 59.2072 24.822C59.2072 28.8204 56.5422 31.7445 50.7884 31.7445C45.912 31.7445 42.8889 29.4679 41.4922 26.7406L45.1271 24.2431Z" fill="#A4ABBD"/>
<path d="M60.9766 23.1723C60.9766 17.9416 64.7458 14.5938 69.849 14.5938C74.9522 14.5938 78.2678 18.2967 78.2678 22.9127C78.2678 22.9127 78.2678 23.7273 78.2051 24.4733H65.8201C65.9156 26.4247 67.6107 27.6899 70.1743 27.6899C70.9145 27.7147 71.6519 27.5863 72.3401 27.3126C73.0283 27.0389 73.6524 26.6259 74.1733 26.0995L77.0025 28.785C76.1051 29.7537 75.012 30.5207 73.7957 31.0351C72.5795 31.5495 71.2677 31.7996 69.9475 31.7688C64.6175 31.7688 60.9766 28.4209 60.9766 23.2857V23.1723ZM73.4033 21.3194C73.4033 19.8274 71.8097 18.5891 69.858 18.5891C67.745 18.5891 66.0231 19.7827 65.8918 21.3194H73.4033Z" fill="#A4ABBD"/>
<path d="M80.6875 15.0143H85.5311V17.0612C86.2115 15.632 88.032 14.6562 90.306 14.6562C94.3379 14.6562 96.5731 17.2253 96.5731 21.4505V31.3957H91.7385V22.0353C91.7385 20.1495 90.7 18.947 88.7542 18.947C88.3245 18.9318 87.8964 19.0056 87.4966 19.1639C87.0969 19.3222 86.7343 19.5614 86.4315 19.8666C86.1288 20.1718 85.8925 20.5364 85.7375 20.9374C85.5826 21.3383 85.5123 21.767 85.5311 22.1964V31.3957H80.6875V15.0143Z" fill="#A4ABBD"/>
<path d="M101.194 25.9199C102.072 26.9613 103.764 27.7102 105.671 27.7102C107.396 27.7102 108.142 27.1582 108.142 26.3794C108.142 25.2724 105.901 25.1859 103.397 24.3295C101.12 23.5507 99.6247 22.2408 99.6247 19.7791C99.6247 16.2701 102.681 14.5156 105.996 14.5156C108.924 14.5156 110.807 15.5242 112.043 16.6282L109.736 19.812C109.019 19.2152 107.784 18.6184 105.856 18.6184C104.749 18.6184 104.23 19.1078 104.23 19.6598C104.23 20.7638 105.564 20.5699 108.706 21.6739C111.667 22.6824 112.738 24.243 112.738 26.3227C112.738 29.4737 110.527 31.8488 105.522 31.8488C101.848 31.8488 99.6038 30.4494 98.3594 28.9217L101.194 25.9199Z" fill="#A4ABBD"/>
<path d="M114.719 10.8724C114.719 10.1396 115.01 9.43683 115.528 8.91865C116.046 8.40048 116.749 8.10938 117.482 8.10938C118.215 8.10938 118.918 8.40048 119.436 8.91865C119.955 9.43683 120.246 10.1396 120.246 10.8724C120.246 11.6052 119.955 12.308 119.436 12.8262C118.918 13.3444 118.215 13.6355 117.482 13.6355C116.749 13.6355 116.046 13.3444 115.528 12.8262C115.01 12.308 114.719 11.6052 114.719 10.8724ZM115.077 14.9991H119.92V31.3804H115.077V14.9991Z" fill="#A4ABBD"/>
<path d="M123.164 8.73438H128.017V17.1518C128.47 15.7226 130.389 14.714 132.893 14.714C137.54 14.714 141.019 18.4856 141.019 23.1971C141.019 27.9086 137.54 31.6802 132.893 31.6802C130.389 31.6802 128.47 30.6418 128.017 29.2424V31.3878H123.164V8.73438ZM132.007 27.2939C132.554 27.3087 133.098 27.2137 133.608 27.0145C134.118 26.8154 134.583 26.5161 134.975 26.1343C135.367 25.7526 135.679 25.2961 135.892 24.7919C136.105 24.2877 136.215 23.7459 136.215 23.1986C136.215 22.6513 136.105 22.1095 135.892 21.6053C135.679 21.1011 135.367 20.6446 134.975 20.2629C134.583 19.8811 134.118 19.5818 133.608 19.3827C133.098 19.1835 132.554 19.0885 132.007 19.1033C129.634 19.0943 127.718 20.8846 127.718 23.1971C127.718 25.5096 129.637 27.2939 132.01 27.2939" fill="#A4ABBD"/>
<path d="M151.898 14.5156C156.938 14.5156 161 18.3499 161 23.1927C161 28.0355 156.938 31.8697 151.898 31.8697C146.857 31.8697 142.804 28.0414 142.804 23.1927C142.804 18.3439 146.824 14.5156 151.898 14.5156ZM151.898 27.4835C152.748 27.49 153.581 27.2438 154.291 26.7763C155.001 26.3088 155.556 25.641 155.886 24.8576C156.216 24.0741 156.305 23.2104 156.144 22.3759C155.982 21.5414 155.576 20.7738 154.977 20.1704C154.378 19.5671 153.613 19.1551 152.78 18.9869C151.947 18.8187 151.082 18.9017 150.296 19.2255C149.51 19.5492 148.838 20.0992 148.365 20.8055C147.892 21.5118 147.639 22.3426 147.639 23.1927C147.632 23.7552 147.738 24.3135 147.949 24.835C148.16 25.3565 148.473 25.8307 148.869 26.2301C149.266 26.6294 149.738 26.9459 150.258 27.1611C150.777 27.3763 151.335 27.4859 151.898 27.4835Z" fill="#A4ABBD"/>
</svg>
